<?xml version="1.0" encoding="utf-8"?>
<!-- Generator: Adobe Illustrator 19.1.0, SVG Export Plug-In . SVG Version: 6.00 Build 0)  -->
<svg version="1.1" id="Layer_1" xmlns="http://www.w3.org/2000/svg" xmlns:xlink="http://www.w3.org/1999/xlink" x="0px" y="0px"
	 viewBox="0 0 432 288" enable-background="new 0 0 432 288" xml:space="preserve">
<g>
	<linearGradient id="SVGID_1_" gradientUnits="userSpaceOnUse" x1="311.8775" y1="142.7878" x2="318.9459" y2="142.7878">
		<stop  offset="0.3455" style="stop-color:#E42B27"/>
		<stop  offset="0.3636" style="stop-color:#E42B27"/>
		<stop  offset="0.497" style="stop-color:#E5533C"/>
	</linearGradient>
	<path fill-rule="evenodd" clip-rule="evenodd" fill="url(#SVGID_1_)" d="M316.1,109.6c0.6,0,1.5-0.1,1.8,0.3
		c0.5,2.3,0.3,5.2,0.3,7.9c0,5.3,0,10.7,0,16.1c0,2.6-0.4,5.1-0.5,7.7c-0.2,2.8,0,6.4,0.3,9.3c0.1,0.9,0.4,1.8,0.5,2.6
		c0.2,2.3,0.1,5,0.3,7.5c0.2,4.4,0.7,8.2-0.4,12c-0.4,1.4-1.2,2.9-2,2.9c-1.6,0.2-2.4-2.4-2.7-4c-0.7-3.6-0.6-8.3-0.4-12.4
		c0.1-2,0.6-4.1,0.1-5.9c0.9-4.6,1-10.6,0.1-15.1c-0.2-1-0.2-2-0.4-2.9c-0.3-1.9-0.9-3.8-1-5.6c-0.2-2.4-0.1-5.1,0-7.4
		C312.3,117.6,313.2,112,316.1,109.6z"/>
	<linearGradient id="SVGID_2_" gradientUnits="userSpaceOnUse" x1="232.1074" y1="143.7686" x2="240.7883" y2="143.7686">
		<stop  offset="0.3455" style="stop-color:#E42B27"/>
		<stop  offset="0.3636" style="stop-color:#E42B27"/>
		<stop  offset="0.497" style="stop-color:#E5533C"/>
	</linearGradient>
	<path fill-rule="evenodd" clip-rule="evenodd" fill="url(#SVGID_2_)" d="M235.4,111.5c0.1,0,0.1,0,0.1,0.1c0.3,2.9,0.4,6.5,0.4,10
		c0,1-0.2,2.2,0.4,2.9c1.1-0.3,0.6-1.9,0.6-2.8c0-3.2-0.1-7.3,0.1-10.2c0.6,0.2,0.3,1,0.4,1.5c0.3,2.4,0.5,5.9,0.6,8.6
		c0.1,1.1-0.4,2.5,0.5,3.1c0.7,0,0.5-1,0.5-1.4c0.2-3.5-0.8-8-0.3-11.8c0.5,0.1,0.3,0.8,0.4,1.2c0.8,4.4,1.1,8.8,1.4,13.8
		c0.1,1.9,0.4,3.7-0.1,5c-0.6,1.4-2.2,1.8-2.7,3.5c0,0.1-0.1,0.8-0.1,0.9c-0.3,2.8,0.1,5.8,0.1,9c0.1,3.1,0,6.4,0.5,8.8
		c0.2,0.9,0.8,1.7,0.9,2.6c0.1,0.4-0.1,0.7-0.1,1.2c0,0.5,0.2,1,0.3,1.5c0.3,3.7,1.1,9,0.4,12.9c-0.4,2.3-2.3,5.7-4.7,3.6
		c-2.9-2.6-1.3-12.4-1.2-17.3c0-0.6-0.1-1.3,0-1.8c0.1-1.1,0.8-2,1-3.3c0.4-2.7,0.2-5.9,0.4-9c0.1-1.4,0.1-3.1,0.1-4.6
		c0-2.6,0-4.7-1.2-6c-0.6-0.7-1.7-1.2-1.9-1.9c-0.2-0.6-0.2-2.5-0.1-3.8c0.1-4.2,0.5-9.2,0.9-13.3c0-0.5,0.2-1.1,0.3-1.5
		c0.1-0.4-0.1-1.1,0.5-1.2c0.1,3,0.3,6.8,0.1,10c0,1-0.5,2.4,0.3,3.1c0.9-0.7,0.5-2.4,0.5-3.5c0.1-2.9,0.2-6.4,0.3-9.2
		c0.1,0,0.1,0,0.1-0.1C235.1,111.7,235.2,111.6,235.4,111.5z"/>
	<linearGradient id="SVGID_3_" gradientUnits="userSpaceOnUse" x1="107.7729" y1="151.2339" x2="128.2675" y2="151.2339">
		<stop  offset="0.3455" style="stop-color:#E42B27"/>
		<stop  offset="0.3636" style="stop-color:#E42B27"/>
		<stop  offset="0.497" style="stop-color:#E5533C"/>
	</linearGradient>
	<path fill-rule="evenodd" clip-rule="evenodd" fill="url(#SVGID_3_)" d="M107.8,126.5c6.8,0,13.6,0,20.5,0
		c-0.1,1.8,0.2,3.9-0.1,5.5c-2.2,0-4.4,0-6.7,0c-0.1,14.6,0.2,29.6-0.1,44c-2.3,0-4.5,0-6.8,0c0-14.7,0-29.3,0-44
		c-2.3,0-4.5,0-6.8,0C107.8,130.1,107.8,128.3,107.8,126.5z"/>
	<linearGradient id="SVGID_4_" gradientUnits="userSpaceOnUse" x1="131.5204" y1="151.1944" x2="152.2348" y2="151.1944">
		<stop  offset="0.3455" style="stop-color:#E42B27"/>
		<stop  offset="0.3636" style="stop-color:#E42B27"/>
		<stop  offset="0.497" style="stop-color:#E5533C"/>
	</linearGradient>
	<path fill-rule="evenodd" clip-rule="evenodd" fill="url(#SVGID_4_)" d="M152.2,176c-2.3,0-4.6,0-6.9,0c0-6.9,0-14.7,0-22
		c-2.2,0-4.4,0-6.7,0c-0.3,7.1,0,14.7-0.1,22c-2.3,0-4.5,0-6.8,0c0-6.1,0-13.1,0-20.1c0-6.9-0.4-13.9,0-20c0.3-3.8,2.4-9,6-9.5
		c1.5-0.2,3.2,0,4.6,0c1.5,0,3.2-0.2,4.4,0.1c3.1,0.8,4.8,4.8,5.2,8.6c0.5,4.2,0.3,9.2,0.3,13.4C152.2,158.2,152.2,167.8,152.2,176z
		 M144.9,134.9c-0.5-1.6-1.8-3.7-3.8-2.8c-4,1.8-2.1,10.7-2.6,16.4c2.3,0,4.5,0,6.8,0C144.9,144.5,146.1,138.4,144.9,134.9z"/>
	<linearGradient id="SVGID_5_" gradientUnits="userSpaceOnUse" x1="158.8556" y1="151.2297" x2="176.0863" y2="151.2297">
		<stop  offset="0.3455" style="stop-color:#E42B27"/>
		<stop  offset="0.3636" style="stop-color:#E42B27"/>
		<stop  offset="0.497" style="stop-color:#E5533C"/>
	</linearGradient>
	<path fill-rule="evenodd" clip-rule="evenodd" fill="url(#SVGID_5_)" d="M176,137.5c-1.1,0-2.2,0-3.3,0c0.1-3-2.1-7.6-5.4-4.9
		c-1.4,1.2-2,4.4-1.3,6.9c0.5,1.7,1.7,3.3,2.7,5.1c0.9,1.7,1.8,3.5,2.7,5.1c1.9,3.6,4.3,6.7,4.6,11c0.5,6-0.5,11.4-3.6,14.1
		c-0.4,0.3-1,0.8-1.8,1c-2.7,0.8-7.5,0-8.7-1c-2.4-1.9-2.8-5.4-2.9-9.9c1.2,0,2.3,0,3.5,0c-0.4,2.8,1,6.3,4.3,5.4
		c2.4-0.6,2.9-5,2-7.9c-0.5-1.6-1.7-3.3-2.7-5c-0.9-1.7-1.8-3.4-2.7-5c-1.9-3.5-4.2-6.6-4.5-10.9c-0.4-5.9,0.4-11.2,3.6-13.9
		c0.6-0.5,1.4-1,2.4-1.2c2.4-0.3,5.3-0.2,6.7,0.4C175,128.3,175.6,132.6,176,137.5z"/>
	<linearGradient id="SVGID_6_" gradientUnits="userSpaceOnUse" x1="179.4261" y1="151.2339" x2="199.9063" y2="151.2339">
		<stop  offset="0.3455" style="stop-color:#E42B27"/>
		<stop  offset="0.3636" style="stop-color:#E42B27"/>
		<stop  offset="0.497" style="stop-color:#E5533C"/>
	</linearGradient>
	<path fill-rule="evenodd" clip-rule="evenodd" fill="url(#SVGID_6_)" d="M179.6,126.5c6.8,0,13.6,0,20.3,0c0,1.8,0,3.7,0,5.5
		c-2.2,0-4.4,0-6.7,0c-0.3,14.4,0,29.4-0.1,44c-2.3,0-4.6,0-6.9,0c0-14.6,0-29.3,0-43.9c-2-0.3-4.6,0-6.8-0.1c0-1.7,0-3.4,0-5.1
		C179.4,126.7,179.4,126.5,179.6,126.5z"/>
	<linearGradient id="SVGID_7_" gradientUnits="userSpaceOnUse" x1="203.2138" y1="151.2339" x2="223.8956" y2="151.2339">
		<stop  offset="0.3455" style="stop-color:#E42B27"/>
		<stop  offset="0.3636" style="stop-color:#E42B27"/>
		<stop  offset="0.497" style="stop-color:#E5533C"/>
	</linearGradient>
	<path fill-rule="evenodd" clip-rule="evenodd" fill="url(#SVGID_7_)" d="M203.5,126.5c2.2,0,4.4,0,6.7,0c0,2.8,0,5.8,0,8.8
		c0,3-0.3,6.1,0,8.8c0.2,1.7,1.3,4.3,3.3,4.4c2,0,3.3-2.6,3.5-4.1c0.6-5.2-0.4-12.6,0-17.9c2.3,0,4.5,0,6.8,0c0,5.4,0.4,13,0,18.7
		c-0.3,4.7-2.5,8-6.8,8.8c0,7.3,0,14.7,0,22c-2.3,0-4.5,0-6.8,0c0-7.3,0-14.6,0-21.9c-2-0.7-3.6-1.3-4.7-2.8c-3.9-5-1.3-16.3-2-24.4
		C203.4,126.7,203.3,126.5,203.5,126.5z"/>
	<linearGradient id="SVGID_8_" gradientUnits="userSpaceOnUse" x1="250.9275" y1="151.2005" x2="271.6565" y2="151.2005">
		<stop  offset="0.3455" style="stop-color:#E42B27"/>
		<stop  offset="0.3636" style="stop-color:#E42B27"/>
		<stop  offset="0.497" style="stop-color:#E5533C"/>
	</linearGradient>
	<path fill-rule="evenodd" clip-rule="evenodd" fill="url(#SVGID_8_)" d="M271.6,137.4c-0.9,0.3-2.3,0.1-3.5,0.1
		c-0.3-2.5-0.5-4.7-2.3-5.4c-1.2-0.4-4.1-0.4-5.2,0c-3.4,1.1-2.7,6.6-2.7,11.6c0,4.8,0,10,0,14.8c0,4.6-0.6,11.6,3.2,11.9
		c3,0.2,3.7-3.4,3.7-6.4c0-3.3-0.1-6.7,0-10c-0.9-0.3-2.3,0-3.5-0.1c0-1.8,0-3.7,0-5.5c3.4,0,6.8,0,10.2,0
		c-0.5,9.6,1.8,21.6-3.3,26.1c-1.7,1.5-3.5,1.4-7,1.4c-1.8,0-4,0-4.9-0.3c-2.9-1-5-5.4-5.2-9.1c-0.3-4.6,0-10.1,0-15.4
		c0-7.9-1-16.7,1.8-21.4c0.9-1.5,2.3-3.2,4.2-3.5c1.3-0.2,3.1,0,4.7,0c2.6,0,4.4-0.1,5.8,0.6C270.8,128.9,271,132.6,271.6,137.4z"/>
	<linearGradient id="SVGID_9_" gradientUnits="userSpaceOnUse" x1="278.3411" y1="151.2601" x2="302.297" y2="151.2601">
		<stop  offset="0.3455" style="stop-color:#E42B27"/>
		<stop  offset="0.3636" style="stop-color:#E42B27"/>
		<stop  offset="0.497" style="stop-color:#E5533C"/>
	</linearGradient>
	<path fill-rule="evenodd" clip-rule="evenodd" fill="url(#SVGID_9_)" d="M278.5,126.5c0.4,0.1,0.8-0.1,1.2,0
		c0.8,0.2,1.9,2.4,2.6,3.3c5.5,7.9,11.2,16.4,16.6,24.1c0-9.1,0-18.3,0-27.4c1.2,0,2.3,0,3.5,0c-0.1,16.5,0.2,33.3-0.1,49.5
		c-1.1,0.3-1.6-0.2-2.2-0.9c-1.3-1.6-2.4-3.7-3.6-5.4c-4.8-7-9.8-14.1-14.6-21.1c0,9.1,0,18.3,0,27.4c-1.2,0-2.3,0-3.5,0
		c0-16.4,0-32.8,0-49.1C278.3,126.7,278.3,126.5,278.5,126.5z"/>
	<linearGradient id="SVGID_10_" gradientUnits="userSpaceOnUse" x1="326.0717" y1="151.2339" x2="346.5518" y2="151.2339">
		<stop  offset="0.3455" style="stop-color:#E42B27"/>
		<stop  offset="0.3636" style="stop-color:#E42B27"/>
		<stop  offset="0.497" style="stop-color:#E5533C"/>
	</linearGradient>
	<path fill-rule="evenodd" clip-rule="evenodd" fill="url(#SVGID_10_)" d="M326.2,126.5c6.8,0,13.6,0,20.3,0c0,1.8,0,3.7,0,5.5
		c-2.3,0-4.5,0-6.8,0c0,14.7,0,29.3,0,44c-2.3,0-4.6,0-6.9,0c0-14.9,0-29.1,0-43.9c-2-0.3-4.6,0-6.8-0.1c0-1.7,0-3.4,0-5.1
		C326.1,126.7,326.1,126.5,326.2,126.5z"/>
	<linearGradient id="SVGID_11_" gradientUnits="userSpaceOnUse" x1="349.9854" y1="151.2339" x2="367.0254" y2="151.2339">
		<stop  offset="0.3455" style="stop-color:#E42B27"/>
		<stop  offset="0.3636" style="stop-color:#E42B27"/>
		<stop  offset="0.497" style="stop-color:#E5533C"/>
	</linearGradient>
	<path fill-rule="evenodd" clip-rule="evenodd" fill="url(#SVGID_11_)" d="M350.1,126.5c5.6,0,11.3,0,16.9,0c0,1.8,0,3.7,0,5.5
		c-3.4,0-6.8,0-10.2,0c0,5.5,0,10.9,0,16.4c2,0.3,4.6,0,6.9,0.1c0,1.8,0,3.7,0,5.5c-2.3,0-4.5,0-6.8,0c-0.3,5.2,0,11-0.1,16.4
		c3.2,0.3,6.9,0,10.2,0.1c0,1.8,0,3.7,0,5.5c-5.7,0-11.3,0-17,0C350.1,159.5,349.8,142.7,350.1,126.5z"/>
	<linearGradient id="SVGID_12_" gradientUnits="userSpaceOnUse" x1="373.9355" y1="151.1989" x2="394.4092" y2="151.1989">
		<stop  offset="0.3455" style="stop-color:#E42B27"/>
		<stop  offset="0.3636" style="stop-color:#E42B27"/>
		<stop  offset="0.497" style="stop-color:#E5533C"/>
	</linearGradient>
	<path fill-rule="evenodd" clip-rule="evenodd" fill="url(#SVGID_12_)" d="M394.4,137c0,1.2,0,2.4,0,3.6c-0.6,4.9-1.3,9.6-6,10.4
		c1.2,0.4,2.4-0.1,3.3,0.1c1.6,0.5,2.5,3.1,2.7,5.1c0,6.6,0,13.2,0,19.8c-1,0-2,0-3.6,0c-0.8,0-3,0.3-3.3-0.1c-0.4-0.4,0-3.6,0-4.9
		c0-1.9,0-3.6,0-4.9c0-7.1,1.2-13.5-6.8-12.2c0,7.3,0,14.7,0,22c-2.3,0-4.5,0-6.8,0c0-16.5,0-33,0-49.5c2.5,0,5.1,0,7.5,0
		c2.5,0,5.3-0.4,7.4,0.1c1.8,0.5,3.2,2.4,4,4C393.8,132.4,394.2,134.6,394.4,137z M380.7,132.4c0,5.4,0,10.7,0,16.1
		c1.4-0.2,3.1,0.3,4.4-0.1c0.9-0.3,2.2-2.3,2.4-4c0.1-1.1,0-2.6,0-4.1c0-1.5,0.2-3.1,0-4.2c-0.3-1.9-1.5-3.6-2.4-4
		c-1.4-0.5-2.5,0.1-4.2-0.1C380.7,132,380.7,132.2,380.7,132.4z"/>
</g>
<g>
	<linearGradient id="SVGID_13_" gradientUnits="userSpaceOnUse" x1="80.8438" y1="139.0321" x2="89.167" y2="139.0321">
		<stop  offset="0.3455" style="stop-color:#E42B27"/>
		<stop  offset="0.3636" style="stop-color:#E42B27"/>
		<stop  offset="0.497" style="stop-color:#E5533C"/>
	</linearGradient>
	<path fill="url(#SVGID_13_)" d="M82.3,141.4L82.3,141.4L82.3,141.4c-0.1,0-0.2,0-0.2-0.1s0.1,0,0.2-0.1c0.1-3.3,2.9-4.7,6.8-4.7
		c-0.4,0-0.8-0.1-1.3-0.1c-3.9,0-6.8,1.5-6.9,4.7c-0.1,0-0.2,0-0.2,0.1c0,0,0.1,0,0.2,0.1v0h0c0.4,0.1,1.3,0.2,2.7,0.2
		C83,141.5,82.6,141.5,82.3,141.4"/>
	<linearGradient id="SVGID_14_" gradientUnits="userSpaceOnUse" x1="86.8726" y1="136.0932" x2="88.6479" y2="136.0932">
		<stop  offset="0.3455" style="stop-color:#E42B27"/>
		<stop  offset="0.3636" style="stop-color:#E42B27"/>
		<stop  offset="0.497" style="stop-color:#E5533C"/>
	</linearGradient>
	<path fill="url(#SVGID_14_)" d="M88.6,136.1c0,0.2-0.4,0.5-0.9,0.4c-0.5,0-0.9-0.2-0.9-0.5c0-0.2,0.4-0.5,0.9-0.4
		C88.2,135.6,88.6,135.8,88.6,136.1"/>
	<linearGradient id="SVGID_15_" gradientUnits="userSpaceOnUse" x1="85.1827" y1="131.0009" x2="87.4439" y2="131.0009">
		<stop  offset="0.3455" style="stop-color:#E42B27"/>
		<stop  offset="0.3636" style="stop-color:#E42B27"/>
		<stop  offset="0.497" style="stop-color:#E5533C"/>
	</linearGradient>
	<path fill="url(#SVGID_15_)" d="M86.9,126.4c0,0,0,0,0,0.1c0,0.1,0,0.2-0.1,0.4c-0.1,0.1-0.2,0.3-0.4,0.4c-0.2,0.1-0.4,0.3-0.6,0.4
		c-0.1,0.1-0.2,0.2-0.2,0.2c-0.1,0.1-0.1,0.2-0.1,0.3l0,0c0,0,0,0,0,0l0,0l0,0c0,0,0,0.1,0,0.1c0,0.1,0,0.1,0.1,0.1
		c0,0.1,0.1,0.1,0.2,0.2c0.1,0.1,0.3,0.2,0.5,0.4c0.1,0.1,0.1,0.2,0.2,0.3c0,0.1,0,0.1,0,0.1l0,0.1c0,0,0,0.1,0,0.1
		c0,0.1,0,0.2,0,0.4c0,0.1-0.1,0.3-0.1,0.4c-0.1,0.2-0.2,0.3-0.3,0.5c-0.1,0.1-0.1,0.2-0.2,0.3c0,0.1,0,0.1,0,0.2v0l0,0l0,0v0
		c0,0,0,0,0,0l0,0.1c0,0,0,0,0,0.1c0,0.2,0.2,0.5,0.4,0.7c0.1,0.1,0.2,0.3,0.3,0.4c0.1,0.2,0.2,0.3,0.2,0.5c0,0.1,0,0.2,0,0.3
		c0,0,0,0.1,0,0.1c0,0,0,0,0,0.1c0,0.1,0.1,0.2,0.1,0.3c0.1,0.2,0.4,0.3,0.5,0.5c0.1,0.2,0.1,0.4,0.1,0.6c0,0.2-0.1,0.3-0.1,0.3
		c0,0.1,0,0.1,0,0.1l0,0c0,0,0,0,0-0.1c0-0.1,0.1-0.2,0.1-0.3c0-0.1,0-0.3-0.1-0.5c-0.1-0.2-0.3-0.3-0.5-0.5
		c-0.1-0.1-0.2-0.2-0.2-0.4c0-0.1,0-0.3-0.1-0.4c-0.1-0.3-0.3-0.5-0.5-0.8c-0.2-0.2-0.4-0.5-0.5-0.9c0-0.2,0-0.4,0-0.5
		c0-0.2,0.1-0.3,0.2-0.5c0.1-0.1,0.2-0.3,0.3-0.4c0.1-0.1,0.1-0.3,0.1-0.5c0-0.2-0.1-0.3-0.2-0.5c-0.1-0.1-0.2-0.2-0.3-0.3
		c-0.1,0-0.1-0.1-0.2-0.2c-0.1-0.1-0.1-0.1-0.1-0.2c-0.1-0.2-0.1-0.3-0.1-0.5c0-0.2,0.1-0.3,0.2-0.4c0.1-0.1,0.2-0.2,0.3-0.3
		c0.2-0.1,0.4-0.3,0.6-0.4c0.2-0.1,0.3-0.2,0.4-0.3c0.1-0.1,0.1-0.2,0.1-0.3C86.9,126.5,86.9,126.4,86.9,126.4L86.9,126.4z"/>
	<linearGradient id="SVGID_16_" gradientUnits="userSpaceOnUse" x1="86.2631" y1="131.0342" x2="87.8821" y2="131.0342">
		<stop  offset="0.3455" style="stop-color:#E42B27"/>
		<stop  offset="0.3636" style="stop-color:#E42B27"/>
		<stop  offset="0.497" style="stop-color:#E5533C"/>
	</linearGradient>
	<path fill="url(#SVGID_16_)" d="M87.7,126.6c0,0,0,0,0,0.1c0,0.1,0,0.2-0.1,0.3c-0.1,0.1-0.2,0.3-0.4,0.4c-0.2,0.1-0.4,0.2-0.5,0.4
		c-0.1,0.1-0.1,0.1-0.1,0.2c0,0,0,0.1,0,0.1c0,0,0,0.1,0,0.1c0,0,0,0,0,0.1c0.1,0.2,0.2,0.3,0.5,0.6c0.1,0.1,0.2,0.2,0.4,0.4
		c0.1,0.2,0.2,0.4,0.2,0.6l0,0v0l0,0v0l0,0.1c0,0.1,0,0.1,0,0.2c0,0.1,0,0.2-0.1,0.3c-0.1,0.2-0.2,0.4-0.3,0.5
		c-0.1,0.1-0.2,0.3-0.3,0.4c-0.1,0.1-0.1,0.2-0.1,0.3c0,0,0,0,0,0v0v0v0c0,0,0,0,0,0v0l0,0.1c0,0,0,0.1,0,0.1c0,0,0,0.1,0,0.1
		c0,0.1,0.1,0.2,0.1,0.3c0.1,0.1,0.2,0.2,0.3,0.3c0.1,0.1,0.2,0.3,0.3,0.4c0.1,0.3,0.2,0.5,0.3,0.8c0.1,0.3,0.1,0.5,0.1,0.7
		c0,0.2,0,0.4,0,0.5c0,0.1,0,0.3-0.1,0.3c0,0.1,0,0.1,0,0.1l0,0c0,0,0,0,0-0.1c0-0.1,0-0.2,0-0.3c0-0.1,0-0.3,0-0.5
		c0-0.2,0-0.4-0.1-0.7c-0.1-0.2-0.2-0.5-0.3-0.7c-0.1-0.2-0.4-0.4-0.6-0.7c-0.2-0.2-0.3-0.6-0.3-0.9c0-0.2,0.1-0.3,0.1-0.5
		c0.1-0.1,0.2-0.3,0.3-0.4c0.1-0.1,0.2-0.3,0.2-0.4c0.1-0.1,0.1-0.3,0.1-0.5c0-0.2-0.1-0.3-0.1-0.4c-0.1-0.1-0.2-0.2-0.3-0.4
		c-0.1-0.1-0.2-0.2-0.3-0.3c-0.1-0.1-0.2-0.3-0.2-0.4c0-0.1,0-0.3,0-0.4c0-0.1,0.1-0.2,0.2-0.3c0.2-0.1,0.4-0.2,0.6-0.3
		c0.2-0.1,0.3-0.2,0.4-0.3c0.1-0.1,0.1-0.2,0.1-0.3C87.7,126.6,87.7,126.6,87.7,126.6L87.7,126.6z"/>
	<linearGradient id="SVGID_17_" gradientUnits="userSpaceOnUse" x1="87.6934" y1="131.0337" x2="89.2192" y2="131.0337">
		<stop  offset="0.3455" style="stop-color:#E42B27"/>
		<stop  offset="0.3636" style="stop-color:#E42B27"/>
		<stop  offset="0.497" style="stop-color:#E5533C"/>
	</linearGradient>
	<path fill="url(#SVGID_17_)" d="M89.2,126.6c0,0,0,0,0,0.1c0,0.1,0,0.2-0.1,0.3c-0.1,0.1-0.2,0.2-0.4,0.3c-0.2,0.1-0.4,0.2-0.5,0.3
		c-0.1,0.1-0.1,0.1-0.1,0.2c0,0,0,0.1,0,0.1c0,0,0,0,0,0l0,0c0,0,0,0,0,0c0,0,0,0,0,0.1c0,0.2,0.2,0.3,0.4,0.6
		c0.1,0.1,0.2,0.3,0.3,0.5c0.1,0.2,0.1,0.4,0.1,0.6c0,0.2,0,0.4-0.1,0.6c-0.1,0.2-0.2,0.3-0.3,0.5c-0.2,0.3-0.3,0.4-0.3,0.7
		c0,0.1,0,0.2,0,0.3c0,0.1,0.1,0.2,0.2,0.3c0.1,0.1,0.1,0.1,0.2,0.2c0,0.1,0.1,0.2,0.1,0.3c0,0.1,0,0.2,0,0.3c0,0,0,0.1,0,0.1
		c0,0,0,0.1,0,0.1c0,0.2-0.1,0.3-0.1,0.4c-0.1,0.1-0.1,0.2-0.1,0.3c-0.1,0.2-0.1,0.4-0.1,0.6c0,0.2,0,0.4,0,0.5c0,0.1,0,0.2,0,0.3
		c0,0.1,0,0.1,0,0.1l0,0c0,0,0,0,0-0.1c0-0.1,0-0.2,0-0.3c0-0.1,0-0.3,0-0.5c0-0.2,0-0.4,0.1-0.7c0.1-0.2,0.2-0.5,0.2-0.7
		c0-0.1,0-0.3,0-0.4c0-0.1-0.1-0.3-0.2-0.4c-0.1-0.1-0.2-0.2-0.3-0.4c-0.1-0.1-0.1-0.3-0.1-0.5c0-0.2,0-0.3,0.1-0.5
		c0.1-0.2,0.2-0.3,0.2-0.4c0.1-0.1,0.2-0.3,0.3-0.4c0.1-0.1,0.1-0.3,0.1-0.4c0-0.2,0-0.3-0.1-0.4c-0.1-0.1-0.1-0.3-0.2-0.4
		c-0.1-0.1-0.2-0.2-0.3-0.4c-0.1-0.1-0.1-0.3-0.1-0.4c0-0.1,0-0.3,0-0.4c0.1-0.1,0.2-0.2,0.3-0.3c0.2-0.1,0.4-0.2,0.6-0.3
		c0.2-0.1,0.3-0.2,0.4-0.3c0.1-0.1,0.1-0.2,0.2-0.3C89.2,126.6,89.2,126.6,89.2,126.6L89.2,126.6z"/>
	<linearGradient id="SVGID_18_" gradientUnits="userSpaceOnUse" x1="79.4712" y1="142.0636" x2="97.1206" y2="142.0636">
		<stop  offset="0.3455" style="stop-color:#E42B27"/>
		<stop  offset="0.3636" style="stop-color:#E42B27"/>
		<stop  offset="0.497" style="stop-color:#E5533C"/>
	</linearGradient>
	<path fill="url(#SVGID_18_)" d="M97.1,141.9c0,0.9-3.9,2.1-8.8,2c-4.9,0-8.8-1.3-8.8-2.1c0-0.9,3.9-1.5,8.8-1.5
		C93.1,140.3,97.1,141,97.1,141.9"/>
	<linearGradient id="SVGID_19_" gradientUnits="userSpaceOnUse" x1="80.8774" y1="139.0828" x2="95.6685" y2="139.0828">
		<stop  offset="0.3455" style="stop-color:#E42B27"/>
		<stop  offset="0.3636" style="stop-color:#E42B27"/>
		<stop  offset="0.497" style="stop-color:#E5533C"/>
	</linearGradient>
	<path fill="url(#SVGID_19_)" d="M95.7,141.4c0,0-0.1,0-0.1-0.1c-0.1-3.1-3.7-4.8-7.6-4.8c-3.9,0-6.8,1.5-6.9,4.7
		c-0.1,0-0.2,0-0.2,0.1c0,0,0.1,0,0.2,0.1v0h0c0.7,0.2,3.7,0.3,7.2,0.3c3.6,0,6.5-0.1,7.2-0.2h0c0,0,0,0,0,0
		C95.6,141.4,95.7,141.4,95.7,141.4"/>
	<linearGradient id="SVGID_20_" gradientUnits="userSpaceOnUse" x1="79.4761" y1="140.178" x2="89.8965" y2="140.178">
		<stop  offset="0.3455" style="stop-color:#E42B27"/>
		<stop  offset="0.3636" style="stop-color:#E42B27"/>
		<stop  offset="0.497" style="stop-color:#E5533C"/>
	</linearGradient>
	<path fill="url(#SVGID_20_)" d="M82.6,141.8c0-0.3,0.6-0.6,1.6-0.9c0.2-2.6,2.3-4,5.2-4.3c-0.5-0.1-1-0.1-1.6-0.1
		c-3.8,0-6.6,1.4-6.9,4.4c-1,0.2-1.6,0.6-1.6,0.9c0,0.9,4,2.1,8.8,2.1c0.5,0,1.1,0,1.6,0C85.8,143.6,82.6,142.5,82.6,141.8"/>
	<linearGradient id="SVGID_21_" gradientUnits="userSpaceOnUse" x1="81.0732" y1="141.4697" x2="95.2856" y2="141.4697">
		<stop  offset="0.3455" style="stop-color:#E42B27"/>
		<stop  offset="0.3636" style="stop-color:#E42B27"/>
		<stop  offset="0.497" style="stop-color:#E5533C"/>
	</linearGradient>
	<path fill="url(#SVGID_21_)" d="M81.1,140.9c0,0,6.9,2.6,14.2,0.1C95.3,141,86.7,142.2,81.1,140.9"/>
	<linearGradient id="SVGID_22_" gradientUnits="userSpaceOnUse" x1="62.6316" y1="136.0938" x2="75.282" y2="136.0938">
		<stop  offset="0.3455" style="stop-color:#E42B27"/>
		<stop  offset="0.3636" style="stop-color:#E42B27"/>
		<stop  offset="0.497" style="stop-color:#E5533C"/>
	</linearGradient>
	<path fill="url(#SVGID_22_)" d="M66.9,137.3l-1.7-2.1c-0.6,0.1-1.3-0.2-1.8-0.7c-0.9-0.9-1-2.2-0.3-3c0.3-0.3,0.7-0.5,1.1-0.5
		c-0.2-0.8,0-1.6,0.5-2.2c0.8-0.9,2.3-0.9,3.3,0.1c0.1-0.2,0.2-0.3,0.3-0.5c0.9-0.9,2.4-0.9,3.4,0.2c1,1.1,1.2,2.7,0.3,3.6
		c-0.2,0.2-0.3,0.3-0.6,0.4l0.8,3c0.7,0.3,1.3,0.7,1.8,1.3c1.7,2,1.6,5-0.2,6.6c-1.8,1.7-4.6,1.4-6.3-0.6
		C66.2,141.2,66,139,66.9,137.3"/>
	<linearGradient id="SVGID_23_" gradientUnits="userSpaceOnUse" x1="57.4915" y1="160.6529" x2="93.278" y2="160.6529">
		<stop  offset="0.3455" style="stop-color:#E42B27"/>
		<stop  offset="0.3636" style="stop-color:#E42B27"/>
		<stop  offset="0.497" style="stop-color:#E5533C"/>
	</linearGradient>
	<path fill="url(#SVGID_23_)" d="M92.4,171.8c-1,0-1.4,0.3-2.1,0.7c-0.8,0.5-1.1,0.5-2-0.7c-0.9-1.2-3.8-5.2-3.8-5.2
		s-3.5-4.7-7.9-6.8c0,0,0,0,0,0l-0.1-5.7c0,0,0,0,0,0l-0.7-3.6c0,0,0,0,0,0l3.4,1c0,0,0,0,0,0l6.7,1.3c0,0,0,0,0,0
		c0-0.2,0.1-0.8,0.3-1.6c0.3-0.9,1.4-4.4,1.4-5.5c0-0.1-0.1-0.2-0.1-0.2l-0.1,0c-0.2,0-0.3,0-0.5,0.1c-0.4,0.1-0.8,0-0.9-0.2
		c-0.1-0.1-0.2-0.2-0.3-0.3l-0.2-0.1c0,0,0,0,0,0c0,0.3-0.3,2.3-1.5,3.1c0,0,0,0,0,0c-1,0-3.1-0.3-4.1-0.5c0,0,0,0,0,0
		c-1.8-0.8-4.5-2.2-4.6-2.3c0,0,0,0,0,0l-5.8,0c0,0,0,0,0,0c-0.2,0.1-11.9,3.4-11.9,4.2c0,0.6,0.4,4.7,0.6,6.9l0.1,1.2
		c0.1,0.8,0.5-0.5,1.2-0.4c0.9,0.1,1.8,1.4,1.7,0.5l-0.3-4.7c0-0.1,0-0.3-0.1-0.4c0,0,0.1-0.1,0.1-0.1c0.7-0.3,5.1-0.6,5.5-0.7
		c0,0,0,0,0,0c0.1,0.2,1.5,2.6,1.9,3.5c0.4,0.9,0.8,4.3,0.9,4.4c0,0,0,0,0,0l-1.2,7.3c0,0,0,0,0,0l-5-2.7c0,0,0,0,0,0l-4.1,8.5
		c0,0,0,0,0,0c0.3,0.2,3.7,3.5,4.4,3.4c0.8,0,2.6-1-1.1-4.2c0,0,0,0,0,0l1.4-3.4c0,0,0,0,0,0l5.8,4.1c0.5,0.4,1.2,0.2,1.4-0.5
		l2.6-7.8c0,0,0,0,0,0c0.5,0.3,5.9,3.6,6.7,4.1c0.8,0.5,6.7,6,7.3,6.9c0,0,0,0,0,0l4.2-0.5c0,0,0,0,0,0c0.1-0.1,1.7-1.4,1.7-2.2
		C93.3,172.1,93.4,171.8,92.4,171.8"/>
	<linearGradient id="SVGID_24_" gradientUnits="userSpaceOnUse" x1="84.5811" y1="145.4139" x2="92.321" y2="145.4139">
		<stop  offset="0.3455" style="stop-color:#E42B27"/>
		<stop  offset="0.3636" style="stop-color:#E42B27"/>
		<stop  offset="0.497" style="stop-color:#E5533C"/>
	</linearGradient>
	<path fill="url(#SVGID_24_)" d="M91.7,144.6c-0.3-0.2-0.8-0.2-0.8-0.2c-0.2-0.2-1.2-0.8-2.8-0.2l-1.1,0.3c-0.6,0-0.6,0.1-1.4-0.6
		c-0.8-0.7-1,0.3-1,0.3c0.6,0.3,0.9,2.1,0.9,2.1s0.5,1,1.3,0.9l1.5-0.9c0.3-0.1,0.6-0.3,0.9-0.4c0.6-0.1,1.3-0.2,1.5-0.2
		C93.3,146.2,92.1,144.8,91.7,144.6"/>
	<linearGradient id="SVGID_25_" gradientUnits="userSpaceOnUse" x1="56.3238" y1="160.767" x2="61.9071" y2="160.767">
		<stop  offset="0.3455" style="stop-color:#E42B27"/>
		<stop  offset="0.3636" style="stop-color:#E42B27"/>
		<stop  offset="0.497" style="stop-color:#E5533C"/>
	</linearGradient>
	<path fill="url(#SVGID_25_)" d="M57.3,163.7c0.3-0.1,0.6-0.4,0.6-0.4c0.3,0,1.3-0.2,1.8-1.9l0.5-1c0.3-0.4,0.3-0.5,1.2-0.6
		c0.9-0.1,0.4-0.9,0.4-0.9c-0.6,0.2-1.9-0.9-1.9-0.9s-1-0.4-1.4,0.3l-0.3,1.8c-0.1,0.3-0.2,0.7-0.3,1c-0.3,0.6-0.6,1.1-0.7,1.2
		C55.4,163.6,57,163.8,57.3,163.7"/>
	<linearGradient id="SVGID_26_" gradientUnits="userSpaceOnUse" x1="46.4614" y1="153.9691" x2="55.4021" y2="153.9691">
		<stop  offset="0.3455" style="stop-color:#E42B27"/>
		<stop  offset="0.3636" style="stop-color:#E42B27"/>
		<stop  offset="0.497" style="stop-color:#E5533C"/>
	</linearGradient>
	<path fill="url(#SVGID_26_)" d="M46.5,152.2l8.5,1.2c0.4,0,0.6,0.7,0.5,1.3c-0.1,0.7-0.5,1.1-0.8,0.9L46.5,152.2z"/>
	<linearGradient id="SVGID_27_" gradientUnits="userSpaceOnUse" x1="44.6498" y1="152.2618" x2="46.7175" y2="152.2618">
		<stop  offset="0.3455" style="stop-color:#E42B27"/>
		<stop  offset="0.3636" style="stop-color:#E42B27"/>
		<stop  offset="0.497" style="stop-color:#E5533C"/>
	</linearGradient>
	<path fill="url(#SVGID_27_)" d="M45.5,150.9c-0.3,0-0.5,0.2-0.7,0.7c-0.2,0.7-0.1,1.5,0.2,1.7c0.1,0,0.1,0.1,0.2,0.1
		c0,0.4,0.1,0.7,0.3,0.9c0.3,0.3,0.7-0.1,0.9-0.8c0.1-0.4,0.2-0.9,0.1-1.3c0.1-0.1,0.1-0.3,0.2-0.4c0.2-0.7,0.2-1.5-0.1-1.8
		C46.2,149.9,45.7,150.3,45.5,150.9"/>
	<linearGradient id="SVGID_28_" gradientUnits="userSpaceOnUse" x1="41.3745" y1="160.8594" x2="53.4004" y2="160.8594">
		<stop  offset="0.3455" style="stop-color:#E42B27"/>
		<stop  offset="0.3636" style="stop-color:#E42B27"/>
		<stop  offset="0.497" style="stop-color:#E5533C"/>
	</linearGradient>
	<path fill="url(#SVGID_28_)" d="M41.4,158l11.3,3.4c0.5,0.1,0.8,0.8,0.7,1.5c-0.1,0.7-0.6,1-1,0.8L41.4,158z"/>
	<linearGradient id="SVGID_29_" gradientUnits="userSpaceOnUse" x1="38.9594" y1="157.9089" x2="41.6583" y2="157.9089">
		<stop  offset="0.3455" style="stop-color:#E42B27"/>
		<stop  offset="0.3636" style="stop-color:#E42B27"/>
		<stop  offset="0.497" style="stop-color:#E5533C"/>
	</linearGradient>
	<path fill="url(#SVGID_29_)" d="M40.1,156.3c-0.4-0.1-0.8,0.2-1,0.7c-0.3,0.7-0.1,1.5,0.3,1.9c0.1,0.1,0.1,0.1,0.2,0.1
		c0,0.4,0.2,0.8,0.4,1c0.4,0.3,1,0,1.2-0.7c0.2-0.4,0.2-0.9,0.1-1.3c0.1-0.1,0.1-0.2,0.2-0.4c0.3-0.7,0.1-1.6-0.3-1.9
		C40.9,155.4,40.4,155.7,40.1,156.3"/>
	<linearGradient id="SVGID_30_" gradientUnits="userSpaceOnUse" x1="40.3115" y1="168.3757" x2="53.4898" y2="168.3757">
		<stop  offset="0.3455" style="stop-color:#E42B27"/>
		<stop  offset="0.3636" style="stop-color:#E42B27"/>
		<stop  offset="0.497" style="stop-color:#E5533C"/>
	</linearGradient>
	<path fill="url(#SVGID_30_)" d="M40.4,164.7l12.4,4.9c0.5,0.2,0.8,1,0.7,1.6c-0.1,0.7-0.7,1-1.2,0.8l-11.9-7.2L40.4,164.7z"/>
	<linearGradient id="SVGID_31_" gradientUnits="userSpaceOnUse" x1="37.5911" y1="164.7168" x2="40.5734" y2="164.7168">
		<stop  offset="0.3455" style="stop-color:#E42B27"/>
		<stop  offset="0.3636" style="stop-color:#E42B27"/>
		<stop  offset="0.497" style="stop-color:#E5533C"/>
	</linearGradient>
	<path fill="url(#SVGID_31_)" d="M38.9,163c-0.4-0.2-0.9,0.1-1.1,0.6c-0.3,0.7-0.2,1.5,0.3,2c0.1,0.1,0.2,0.1,0.2,0.2
		c0,0.4,0.2,0.8,0.4,1.1c0.4,0.4,1,0.2,1.3-0.5c0.2-0.4,0.2-0.9,0.1-1.3c0.1-0.1,0.2-0.2,0.2-0.4c0.3-0.7,0.2-1.6-0.3-2
		C39.7,162.2,39.2,162.4,38.9,163"/>
</g>
</svg>
