<?xml version="1.0" encoding="utf-8"?>
<!-- Generator: Adobe Illustrator 19.1.0, SVG Export Plug-In . SVG Version: 6.00 Build 0)  -->
<svg version="1.1" id="Layer_1" xmlns="http://www.w3.org/2000/svg" xmlns:xlink="http://www.w3.org/1999/xlink" x="0px" y="0px"
	 viewBox="0 0 432 288" enable-background="new 0 0 432 288" xml:space="preserve">
<g>
	<path fill-rule="evenodd" clip-rule="evenodd" fill="#E52928" d="M285,107c0.7,0,1.6-0.2,1.9,0.3c0.5,2.5,0.3,5.6,0.3,8.5
		c0,5.7,0,11.4,0,17.2c0,2.8-0.4,5.4-0.5,8.2c-0.2,2.9,0,6.9,0.3,10c0.1,1,0.5,1.9,0.5,2.7c0.2,2.5,0.1,5.3,0.3,8
		c0.2,4.7,0.7,8.8-0.4,12.8c-0.4,1.5-1.3,3-2.2,3.1c-1.7,0.2-2.5-2.6-2.9-4.2c-0.7-3.8-0.6-8.9-0.4-13.2c0.1-2.2,0.6-4.3,0.1-6.3
		c1-4.9,1-11.3,0.1-16.1c-0.2-1.1-0.3-2.1-0.4-3.1c-0.3-2-0.9-4.1-1.1-6c-0.2-2.6-0.2-5.4,0-7.9C281,115.5,282,109.5,285,107z"/>
	<path fill-rule="evenodd" clip-rule="evenodd" fill="#E52928" d="M199,109c0.1,0,0.1,0.1,0.1,0.1c0.3,3.1,0.4,6.9,0.4,10.6
		c0,1.1-0.2,2.3,0.4,3.1c1.2-0.3,0.7-2,0.7-3c0-3.4-0.1-7.7,0.1-10.9c0.6,0.3,0.3,1.1,0.4,1.6c0.3,2.5,0.5,6.2,0.7,9.1
		c0.1,1.1-0.4,2.6,0.5,3.3c0.8-0.1,0.5-1,0.5-1.5c0.2-3.7-0.8-8.6-0.3-12.5c0.5,0.1,0.3,0.9,0.4,1.2c0.8,4.7,1.2,9.4,1.5,14.7
		c0.1,2.1,0.5,3.9-0.1,5.3c-0.6,1.5-2.4,1.9-2.9,3.7c0,0.1-0.1,0.8-0.1,1c-0.3,3,0.1,6.2,0.1,9.5c0.1,3.3,0,6.8,0.5,9.4
		c0.2,1,0.8,1.8,1,2.7c0.1,0.4-0.1,0.8-0.1,1.2c0,0.5,0.2,1,0.3,1.6c0.3,4,1.2,9.6,0.4,13.8c-0.5,2.5-2.4,6.1-5,3.8
		c-3.1-2.7-1.4-13.2-1.2-18.4c0-0.7-0.1-1.4,0-1.9c0.1-1.1,0.9-2.2,1.1-3.5c0.5-2.9,0.2-6.3,0.4-9.5c0.1-1.5,0.1-3.3,0.1-4.9
		c0-2.8,0-5-1.2-6.4c-0.6-0.8-1.8-1.3-2-2c-0.3-0.7-0.2-2.7-0.1-4.1c0.1-4.4,0.5-9.9,1-14.2c0.1-0.5,0.2-1.1,0.3-1.6
		c0.1-0.4-0.1-1.2,0.5-1.2c0.1,3.2,0.3,7.2,0.1,10.6c0,1.1-0.6,2.5,0.3,3.3c1-0.7,0.5-2.5,0.5-3.7c0.1-3.1,0.2-6.8,0.3-9.8
		c0.1,0,0.1-0.1,0.1-0.1C198.7,109.2,198.8,109.1,199,109z"/>
	<path fill-rule="evenodd" clip-rule="evenodd" fill="#E52928" d="M63,125c7.3,0,14.5,0,21.8,0c-0.1,1.9,0.2,4.2-0.1,5.9
		c-2.4,0-4.7,0-7.1,0c-0.1,15.6,0.2,31.6-0.1,46.9c-2.4,0-4.8,0-7.2,0c0-15.6,0-31.3,0-46.9c-2.4,0-4.8,0-7.2,0
		C63,128.9,63,126.9,63,125z"/>
	<path fill-rule="evenodd" clip-rule="evenodd" fill="#E52928" d="M110.3,177.8c-2.5,0-4.9,0-7.4,0c0-7.3,0-15.7,0-23.5
		c-2.4,0-4.7,0-7.1,0c-0.3,7.5,0,15.7-0.1,23.5c-2.4,0-4.8,0-7.2,0c0-6.5,0-14,0-21.4c0-7.4-0.4-14.8,0-21.3c0.3-4,2.6-9.6,6.4-10.1
		c1.6-0.2,3.4,0,4.9,0c1.6,0,3.4-0.2,4.6,0.1c3.3,0.9,5.1,5.2,5.6,9.1c0.5,4.4,0.3,9.8,0.3,14.3C110.3,158.8,110.3,169,110.3,177.8z
		 M102.5,134c-0.6-1.7-1.9-4-4.1-3c-4.3,1.9-2.2,11.4-2.7,17.5c2.4,0,4.8,0,7.2,0C102.5,144.2,103.8,137.7,102.5,134z"/>
	<path fill-rule="evenodd" clip-rule="evenodd" fill="#E52928" d="M135.7,136.7c-1.2,0-2.4,0-3.5,0c0.1-3.1-2.2-8.1-5.7-5.2
		c-1.5,1.3-2.1,4.7-1.4,7.4c0.5,1.8,1.8,3.6,2.9,5.5c1,1.8,1.9,3.7,2.9,5.5c2.1,3.8,4.6,7.1,4.9,11.7c0.5,6.4-0.5,12.2-3.8,15
		c-0.4,0.4-1.1,0.9-1.9,1.1c-2.9,0.8-8,0-9.3-1.1c-2.5-2-3-5.8-3.1-10.5c1.2,0,2.5,0,3.7,0c-0.5,2.9,1,6.7,4.6,5.7
		c2.5-0.7,3.1-5.4,2.2-8.5c-0.5-1.7-1.9-3.5-2.9-5.3c-1-1.8-1.9-3.6-2.9-5.3c-2-3.7-4.4-7-4.8-11.6c-0.5-6.3,0.5-12,3.8-14.9
		c0.6-0.5,1.5-1.1,2.6-1.2c2.5-0.4,5.7-0.2,7.1,0.4C134.6,127,135.3,131.5,135.7,136.7z"/>
	<path fill-rule="evenodd" clip-rule="evenodd" fill="#E52928" d="M139.5,125c7.2,0,14.5,0,21.7,0c0,2,0,3.9,0,5.9
		c-2.4,0-4.7,0-7.1,0c-0.3,15.4,0,31.3-0.1,46.9c-2.5,0-4.9,0-7.4,0c0-15.6,0-31.2,0-46.8c-2.1-0.3-4.9,0-7.2-0.1c0-1.8,0-3.6,0-5.5
		C139.3,125.2,139.3,125,139.5,125z"/>
	<path fill-rule="evenodd" clip-rule="evenodd" fill="#E52928" d="M165,125c2.4,0,4.7,0,7.1,0c0,3,0,6.2,0,9.4c0,3.2-0.3,6.5,0,9.4
		c0.2,1.8,1.4,4.6,3.5,4.6c2.2,0.1,3.5-2.8,3.7-4.4c0.6-5.5-0.5-13.4,0-19.1c2.4,0,4.8,0,7.2,0c0,5.8,0.4,13.8,0,19.9
		c-0.4,5-2.6,8.6-7.2,9.4c0,7.8,0,15.6,0,23.5c-2.4,0-4.8,0-7.2,0c0-7.8,0-15.5,0-23.3c-2.2-0.8-3.8-1.4-5-3
		c-4.1-5.3-1.3-17.4-2.2-26.1C164.8,125.2,164.8,125,165,125z"/>
	<path fill-rule="evenodd" clip-rule="evenodd" fill="#E52928" d="M237.6,136.6c-1,0.3-2.5,0.1-3.7,0.1c-0.4-2.7-0.6-5-2.5-5.7
		c-1.3-0.5-4.3-0.4-5.6,0c-3.6,1.1-2.9,7-2.9,12.4c0,5.1,0,10.7,0,15.8c0,4.9-0.7,12.4,3.4,12.7c3.2,0.2,3.9-3.7,4-6.8
		c0-3.6-0.1-7.1,0-10.6c-1-0.3-2.5,0-3.7-0.1c0-2,0-3.9,0-5.9c3.6,0,7.3,0,10.9,0c-0.5,10.2,1.9,23-3.5,27.8
		c-1.8,1.6-3.7,1.5-7.5,1.5c-1.9,0-4.2,0-5.2-0.3c-3.1-1-5.3-5.7-5.6-9.7c-0.4-4.9,0-10.7,0-16.4c0-8.5-1-17.8,1.9-22.8
		c0.9-1.6,2.5-3.4,4.5-3.7c1.4-0.2,3.3,0,5,0c2.8,0,4.7-0.1,6.1,0.7C236.7,127.6,237,131.5,237.6,136.6z"/>
	<path fill-rule="evenodd" clip-rule="evenodd" fill="#E52928" d="M244.9,125c0.4,0.1,0.9-0.1,1.2,0c0.8,0.2,2,2.6,2.7,3.5
		c5.8,8.4,12,17.5,17.7,25.6c0-9.7,0-19.5,0-29.2c1.2,0,2.5,0,3.7,0c-0.1,17.5,0.2,35.5-0.1,52.8c-1.2,0.3-1.7-0.2-2.3-1
		c-1.3-1.8-2.6-3.9-3.8-5.7c-5.1-7.5-10.5-15.1-15.5-22.5c0,9.7,0,19.5,0,29.2c-1.2,0-2.5,0-3.7,0c0-17.5,0-34.9,0-52.4
		C244.8,125.2,244.8,125,244.9,125z"/>
	<path fill-rule="evenodd" clip-rule="evenodd" fill="#E52928" d="M295.8,125c7.2,0,14.5,0,21.7,0c0,2,0,3.9,0,5.9
		c-2.4,0-4.8,0-7.2,0c0,15.6,0,31.3,0,46.9c-2.5,0-4.9,0-7.4,0c0-15.9,0-31,0-46.8c-2.1-0.3-4.9,0-7.2-0.1c0-1.8,0-3.6,0-5.5
		C295.7,125.2,295.6,125,295.8,125z"/>
	<path fill-rule="evenodd" clip-rule="evenodd" fill="#E52928" d="M321.3,125c6,0,12,0,18,0c0,2,0,3.9,0,5.9c-3.6,0-7.3,0-10.9,0
		c0,5.8,0,11.6,0,17.5c2.2,0.3,5,0,7.4,0.1c0,2,0,3.9,0,5.9c-2.4,0-4.8,0-7.2,0c-0.3,5.5,0,11.7-0.1,17.5c3.4,0.3,7.3,0,10.9,0.1
		c0,2,0,3.9,0,5.9c-6,0-12.1,0-18.1,0C321.3,160.2,321,142.3,321.3,125z"/>
	<path fill-rule="evenodd" clip-rule="evenodd" fill="#E52928" d="M368.5,136.2c0,1.3,0,2.5,0,3.8c-0.6,5.2-1.4,10.2-6.4,11
		c1.3,0.4,2.6-0.1,3.5,0.1c1.7,0.5,2.6,3.4,2.9,5.5c0,7,0,14.1,0,21.1c-1.1,0-2.2,0-3.8,0c-0.8,0-3.2,0.3-3.5-0.1
		c-0.4-0.5,0-3.8,0-5.2c0-2,0-3.8,0-5.2c0-7.6,1.3-14.4-7.2-13c0,7.8,0,15.6,0,23.5c-2.4,0-4.8,0-7.2,0c0-17.6,0-35.2,0-52.8
		c2.7,0,5.4,0,8,0c2.7,0,5.7-0.5,7.9,0.1c1.9,0.5,3.4,2.6,4.2,4.2C367.9,131.3,368.2,133.7,368.5,136.2z M353.9,131.3
		c0,5.7,0,11.5,0,17.2c1.5-0.2,3.3,0.4,4.6-0.1c1-0.4,2.3-2.4,2.6-4.2c0.2-1.1,0-2.8,0-4.4c0-1.6,0.2-3.3,0-4.5
		c-0.3-2-1.6-3.9-2.6-4.2c-1.5-0.5-2.7,0.1-4.5-0.1C353.9,130.9,353.9,131.1,353.9,131.3z"/>
</g>
</svg>
