<?xml version="1.0" encoding="utf-8"?>
<!-- Generator: Adobe Illustrator 15.0.0, SVG Export Plug-In . SVG Version: 6.00 Build 0)  -->
<!DOCTYPE svg PUBLIC "-//W3C//DTD SVG 1.1//EN" "http://www.w3.org/Graphics/SVG/1.1/DTD/svg11.dtd">
<svg version="1.1" id="Layer_1" xmlns="http://www.w3.org/2000/svg" xmlns:xlink="http://www.w3.org/1999/xlink" x="0px" y="0px"
	 width="500px" height="500px" viewBox="0 0 500 500" enable-background="new 0 0 500 500" xml:space="preserve">
<g>
	<linearGradient id="SVGID_1_" gradientUnits="userSpaceOnUse" x1="362.9883" y1="120.5171" x2="432.7354" y2="120.5171">
		<stop  offset="0.3455" style="stop-color:#E42B27"/>
		<stop  offset="0.3636" style="stop-color:#E42B27"/>
		<stop  offset="0.497" style="stop-color:#E5533C"/>
	</linearGradient>
	<path fill="url(#SVGID_1_)" d="M375.599,140.662h-0.025v-0.004c-0.837-0.197-1.279-0.398-1.284-0.601
		c-0.003-0.21,0.478-0.412,1.356-0.604c0.771-27.253,24.585-39.733,57.09-39.7c-3.523-0.369-7.106-0.594-10.736-0.615
		c-32.8-0.182-56.879,12.297-57.656,39.71c-0.879,0.192-1.357,0.393-1.354,0.603c0.003,0.204,0.446,0.405,1.285,0.603l-0.001,0.003
		l0.025,0.001c3.045,0.709,11.271,1.356,22.637,1.838C381.467,141.527,377.507,141.107,375.599,140.662"/>
	<linearGradient id="SVGID_2_" gradientUnits="userSpaceOnUse" x1="413.5088" y1="95.8848" x2="428.3828" y2="95.8848">
		<stop  offset="0.3455" style="stop-color:#E42B27"/>
		<stop  offset="0.3636" style="stop-color:#E42B27"/>
		<stop  offset="0.497" style="stop-color:#E5533C"/>
	</linearGradient>
	<path fill="url(#SVGID_2_)" d="M428.383,95.926c0.033,2.093-3.269,3.771-7.376,3.748c-4.106-0.023-7.464-1.737-7.498-3.83
		s3.268-3.771,7.375-3.748C424.991,92.117,428.349,93.833,428.383,95.926"/>
	<linearGradient id="SVGID_3_" gradientUnits="userSpaceOnUse" x1="399.3467" y1="53.2134" x2="418.3008" y2="53.2134">
		<stop  offset="0.3455" style="stop-color:#E42B27"/>
		<stop  offset="0.3636" style="stop-color:#E42B27"/>
		<stop  offset="0.497" style="stop-color:#E5533C"/>
	</linearGradient>
	<path fill="url(#SVGID_3_)" d="M413.693,14.729c-0.021,0.012,0.087,0.335,0.068,1.073c-0.02,0.728-0.204,1.861-0.983,3.042
		c-0.768,1.167-1.972,2.373-3.449,3.453c-1.466,1.095-3.16,2.223-4.764,3.456c-0.789,0.623-1.539,1.307-2.034,2.032
		c-0.52,0.731-0.705,1.412-0.702,2.124l0.017,0.279c0,0,0.002,0.094,0.001,0.021l0.018,0.118l0.032,0.235
		c0.04,0.356,0.1,0.518,0.148,0.754c0.12,0.48,0.283,0.903,0.474,1.221c0.409,0.612,0.718,0.88,1.893,1.59
		c1.11,0.649,2.858,1.823,3.923,3.463c0.537,0.803,0.945,1.649,1.259,2.483c0.165,0.421,0.286,0.833,0.416,1.25l0.154,0.616
		c0.041,0.149,0.101,0.504,0.145,0.749c0.162,1.025,0.184,2.055,0.005,3.139c-0.17,1.072-0.557,2.105-1.041,2.949
		c-0.976,1.713-2.057,2.829-2.798,3.839c-0.777,1.004-1.222,1.864-1.515,2.785c-0.146,0.463-0.234,0.956-0.275,1.483l-0.011,0.199
		l-0.006,0.101l-0.002,0.051l-0.003,0.025c-0.002-0.033,0.004,0.107-0.007-0.066l0.018,0.537c0.026,0.344,0.017,0.418,0.067,0.72
		c0.271,2.011,1.578,4.015,3.231,6.207c0.805,1.102,1.688,2.244,2.383,3.56c0.71,1.299,1.255,2.743,1.497,4.196
		c0.105,0.728,0.179,1.446,0.142,2.147c-0.019,0.212,0,0.596,0.006,0.844c0.027,0.201,0.021,0.395,0.077,0.625
		c0.146,0.896,0.569,1.681,1.169,2.424c1.214,1.466,3.012,2.744,4.041,4.479c1.064,1.74,1.134,3.583,0.913,4.875
		c-0.199,1.327-0.577,2.278-0.807,2.929c-0.265,0.635-0.407,0.975-0.407,0.975l-0.322-0.112c0,0,0.107-0.343,0.312-0.985
		c0.166-0.648,0.446-1.605,0.525-2.852c0.089-1.227-0.081-2.805-1.084-4.221c-0.979-1.438-2.709-2.494-4.247-4.086
		c-0.756-0.803-1.43-1.815-1.722-2.996c-0.34-1.21-0.182-2.408-0.51-3.589c-0.554-2.405-2.188-4.511-3.941-6.561
		c-1.733-2.044-3.662-4.338-4.225-7.276c-0.283-1.451-0.278-2.937,0.063-4.4c0.34-1.459,1.089-2.795,1.955-3.977
		c0.859-1.189,1.828-2.272,2.484-3.499c0.683-1.211,0.926-2.599,0.719-3.951c-0.209-1.355-0.684-2.701-1.396-3.832
		c-0.716-1.152-1.782-1.973-2.913-2.728c-0.56-0.385-1.127-0.793-1.614-1.295c-0.484-0.506-0.881-1.097-1.133-1.734
		c-0.507-1.282-0.623-2.589-0.582-3.878c0.087-1.307,0.685-2.506,1.484-3.401c0.789-0.918,1.725-1.605,2.637-2.214
		c1.835-1.202,3.619-2.098,5.111-3.023c1.502-0.908,2.714-1.854,3.498-2.815c0.79-0.956,1.093-1.912,1.191-2.545
		c0.107-0.634,0.055-1.029,0.073-1.018L413.693,14.729z"/>
	<linearGradient id="SVGID_4_" gradientUnits="userSpaceOnUse" x1="408.4033" y1="53.4951" x2="421.9717" y2="53.4951">
		<stop  offset="0.3455" style="stop-color:#E42B27"/>
		<stop  offset="0.3636" style="stop-color:#E42B27"/>
		<stop  offset="0.497" style="stop-color:#E5533C"/>
	</linearGradient>
	<path fill="url(#SVGID_4_)" d="M420.844,16.084c-0.023,0.016,0.094,0.309,0.077,1.025c-0.017,0.689-0.206,1.809-1.055,2.892
		c-0.816,1.08-2.085,2.103-3.545,3.015c-1.436,0.93-3.12,1.885-4.379,3.024c-0.617,0.576-1.002,1.193-1.103,1.753
		c-0.044,0.29-0.031,0.587-0.004,0.922c0.027,0.058,0.068,0.612,0.12,0.674c0.04,0.151,0.104,0.347,0.169,0.549
		c0.538,1.552,1.945,2.836,3.889,4.647c0.958,0.905,2.055,1.946,3.027,3.365c0.973,1.406,1.643,3.286,1.778,5.111l0.027,0.342
		l0.005,0.086l0.004,0.17l0.003,0.128l0.005,0.531c-0.013,0.519-0.054,1.009-0.113,1.444c-0.127,0.906-0.366,1.808-0.689,2.649
		c-0.636,1.702-1.644,3.053-2.497,4.196c-0.871,1.143-1.639,2.111-2.148,3.017c-0.503,0.911-0.798,1.72-0.928,2.643
		c-0.013,0.117-0.034,0.23-0.037,0.352l-0.01,0.179l-0.005,0.089l-0.003,0.045c0,0.033-0.012-0.214-0.007-0.094l0.001,0.032
		l0.025,1.007c0.014,0.316,0.051,0.458,0.065,0.698c0.003,0.212,0.088,0.467,0.123,0.701c0.233,0.934,0.525,1.808,1.14,2.701
		c0.578,0.906,1.426,1.8,2.217,2.875c0.803,1.054,1.59,2.245,2.117,3.51c1.035,2.211,1.838,4.478,2.288,6.581
		c0.482,2.113,0.587,4.096,0.567,5.817c-0.028,1.725-0.167,3.211-0.377,4.415c-0.191,1.206-0.385,2.14-0.534,2.772
		c-0.144,0.633-0.219,0.97-0.219,0.97l-0.338-0.052c0,0,0.045-0.339,0.129-0.974c0.089-0.636,0.196-1.571,0.275-2.764
		c0.091-1.192,0.127-2.646,0.029-4.306c-0.104-1.658-0.35-3.526-0.914-5.491c-0.552-1.971-1.412-4.018-2.537-6.082
		c-1.086-2.073-3.083-3.61-4.763-5.615c-1.735-1.993-2.538-4.845-2.386-7.579c0.077-1.395,0.514-2.777,1.186-4.005
		c0.668-1.236,1.526-2.335,2.329-3.438c0.808-1.1,1.554-2.228,2.05-3.453c0.494-1.233,0.701-2.527,0.604-3.851
		c-0.079-1.299-0.508-2.547-1.2-3.63c-0.682-1.091-1.572-2.037-2.465-2.958c-0.894-0.919-1.802-1.824-2.562-2.835
		c-0.77-1.001-1.354-2.14-1.644-3.324c-0.273-1.187-0.354-2.396,0.036-3.531c0.403-1.112,1.204-1.958,2.038-2.591
		c1.7-1.254,3.478-1.956,4.956-2.719c1.489-0.739,2.729-1.501,3.536-2.35c0.822-0.839,1.13-1.736,1.228-2.333
		c0.108-0.592,0.054-0.972,0.075-0.96L420.844,16.084z"/>
	<linearGradient id="SVGID_5_" gradientUnits="userSpaceOnUse" x1="420.3848" y1="53.4912" x2="433.1748" y2="53.4912">
		<stop  offset="0.3455" style="stop-color:#E42B27"/>
		<stop  offset="0.3636" style="stop-color:#E42B27"/>
		<stop  offset="0.497" style="stop-color:#E5533C"/>
	</linearGradient>
	<path fill="url(#SVGID_5_)" d="M433.135,16.093c-0.02,0.014,0.073,0.31,0.027,1.005c-0.049,0.669-0.255,1.758-1.111,2.798
		c-0.82,1.044-2.095,2.022-3.557,2.869c-1.438,0.867-3.11,1.748-4.388,2.814c-0.618,0.544-1.036,1.132-1.171,1.692
		c-0.06,0.293-0.091,0.577-0.067,0.918c0.003,0.023-0.005,0.122,0.004,0.083l0.017,0.211c0.015,0.13,0.021,0.308,0.041,0.4
		c0.036,0.187,0.066,0.373,0.121,0.595c0.379,1.717,1.468,2.921,3.196,5.029c0.842,1.038,1.796,2.34,2.441,3.912
		c0.622,1.568,0.906,3.322,0.904,4.901c0.01,1.78-0.381,3.575-1.118,5.167c-0.746,1.576-1.72,2.805-2.499,3.856
		c-1.615,2.099-2.336,3.558-2.486,5.536c-0.079,1.075,0.03,1.794,0.337,2.485c0.257,0.716,0.978,1.512,1.912,2.645
		c0.45,0.562,0.94,1.22,1.29,1.971c0.356,0.748,0.594,1.549,0.705,2.314c0.115,0.769,0.118,1.501,0.07,2.192
		c-0.034,0.341-0.069,0.683-0.102,1.021c-0.036,0.294-0.072,0.586-0.108,0.877c-0.195,1.37-0.595,2.557-1.037,3.615
		c-0.442,1.045-0.835,1.916-1.099,2.813c-0.538,1.773-0.732,3.565-0.786,5.168c-0.07,1.602-0.033,3.022-0.007,4.192
		c0.013,1.173,0.099,2.093,0.123,2.724c0.037,0.629,0.055,0.966,0.055,0.966l-0.338,0.053c0,0-0.048-0.333-0.139-0.958
		c-0.08-0.625-0.246-1.536-0.362-2.71c-0.139-1.17-0.283-2.596-0.332-4.241c-0.054-1.639-0.03-3.522,0.442-5.515
		c0.44-2.003,1.537-3.958,1.708-6.224c0.094-1.156,0.135-2.316-0.158-3.464c-0.273-1.147-0.918-2.181-1.782-3.067
		c-0.842-0.899-1.866-1.75-2.546-2.931c-0.7-1.166-0.966-2.569-0.95-3.91c-0.004-1.36,0.243-2.739,0.782-4.01
		c0.527-1.277,1.311-2.42,2.096-3.508c0.787-1.092,1.569-2.166,2.118-3.341c0.563-1.165,0.853-2.443,0.871-3.715
		c0.023-1.295-0.174-2.568-0.611-3.747c-0.435-1.182-1.12-2.241-1.86-3.248c-0.736-1.008-1.521-1.99-2.127-3.076
		c-0.614-1.078-1.011-2.264-1.147-3.442c-0.136-1.172-0.139-2.358,0.322-3.434c0.456-1.063,1.277-1.847,2.112-2.44
		c1.711-1.158,3.471-1.787,4.941-2.483c1.48-0.673,2.715-1.388,3.52-2.201c0.825-0.798,1.146-1.672,1.272-2.249
		c0.131-0.577,0.102-0.948,0.119-0.936L433.135,16.093z"/>
	<linearGradient id="SVGID_6_" gradientUnits="userSpaceOnUse" x1="351.4834" y1="145.9209" x2="499.3906" y2="145.9209">
		<stop  offset="0.3455" style="stop-color:#E42B27"/>
		<stop  offset="0.3636" style="stop-color:#E42B27"/>
		<stop  offset="0.497" style="stop-color:#E5533C"/>
	</linearGradient>
	<path fill="url(#SVGID_6_)" d="M499.391,144.166c0.115,7.208-32.959,17.199-73.802,16.973
		c-40.844-0.227-73.988-10.584-74.105-17.791c-0.115-7.208,32.9-12.868,73.742-12.642
		C466.07,130.931,499.272,136.957,499.391,144.166"/>
	<linearGradient id="SVGID_7_" gradientUnits="userSpaceOnUse" x1="363.2646" y1="120.9448" x2="487.207" y2="120.9448">
		<stop  offset="0.3455" style="stop-color:#E42B27"/>
		<stop  offset="0.3636" style="stop-color:#E42B27"/>
		<stop  offset="0.497" style="stop-color:#E5533C"/>
	</linearGradient>
	<path fill="url(#SVGID_7_)" d="M487.207,140.14c-0.003-0.193-0.425-0.382-1.172-0.568c-1.155-25.667-30.972-40.251-63.761-40.432
		c-32.798-0.181-56.878,12.299-57.656,39.711c-0.879,0.192-1.358,0.394-1.354,0.603c0.003,0.204,0.446,0.405,1.283,0.602v0.005
		h0.025c5.861,1.366,30.818,2.505,60.71,2.671c29.89,0.166,54.813-0.698,60.635-2l0.211,0.001c0-0.021-0.005-0.038-0.005-0.059
		C486.81,140.502,487.21,140.325,487.207,140.14"/>
	<linearGradient id="SVGID_8_" gradientUnits="userSpaceOnUse" x1="351.5303" y1="130.1162" x2="438.8545" y2="130.1162">
		<stop  offset="0.3455" style="stop-color:#E42B27"/>
		<stop  offset="0.3636" style="stop-color:#E42B27"/>
		<stop  offset="0.497" style="stop-color:#E5533C"/>
	</linearGradient>
	<path fill="url(#SVGID_8_)" d="M377.975,143.47c-0.046-2.796,4.937-5.351,13.381-7.429c2.033-21.588,19.367-33.179,43.979-36.041
		c-4.245-0.541-8.594-0.859-13.013-0.884c-31.589-0.175-55.025,11.437-57.41,36.779c-8.444,2.077-13.426,4.633-13.382,7.429
		c0.116,7.207,33.262,17.564,74.104,17.791c4.521,0.025,8.925-0.094,13.22-0.302C404.326,158.763,378.079,149.88,377.975,143.47"/>
	<linearGradient id="SVGID_9_" gradientUnits="userSpaceOnUse" x1="364.9111" y1="140.9395" x2="484.0107" y2="140.9395">
		<stop  offset="0.3455" style="stop-color:#E42B27"/>
		<stop  offset="0.3636" style="stop-color:#E42B27"/>
		<stop  offset="0.497" style="stop-color:#E5533C"/>
	</linearGradient>
	<path fill="url(#SVGID_9_)" d="M364.911,135.896c0,0,57.495,21.985,119.1,1.044C484.011,136.939,411.687,146.657,364.911,135.896"
		/>
	<linearGradient id="SVGID_10_" gradientUnits="userSpaceOnUse" x1="210.3745" y1="95.8936" x2="316.3818" y2="95.8936">
		<stop  offset="0.3455" style="stop-color:#E42B27"/>
		<stop  offset="0.3636" style="stop-color:#E42B27"/>
		<stop  offset="0.497" style="stop-color:#E5533C"/>
	</linearGradient>
	<path fill="url(#SVGID_10_)" d="M246.398,105.817L231.79,87.826c-5.172,0.699-10.929-1.269-15.351-5.815
		c-7.168-7.357-8.116-18.65-2.124-25.222c2.531-2.772,5.89-4.244,9.471-4.49c-1.675-6.715-0.411-13.7,4.007-18.548
		c6.978-7.642,19.219-7.14,27.795,0.938c0.727-1.49,1.628-2.891,2.767-4.137c7.195-7.889,20.004-7.128,28.604,1.699
		c8.598,8.825,9.743,22.377,2.539,30.263c-1.364,1.496-2.931,2.68-4.633,3.561l6.383,24.749c5.499,2.372,10.638,6.095,14.912,11.145
		c14.181,16.752,13.524,41.637-1.466,55.584c-14.99,13.947-38.638,11.672-52.818-5.078
		C240.371,138.881,238.634,119.933,246.398,105.817"/>
	<linearGradient id="SVGID_11_" gradientUnits="userSpaceOnUse" x1="167.2979" y1="301.6924" x2="467.1895" y2="301.6924">
		<stop  offset="0.3455" style="stop-color:#E42B27"/>
		<stop  offset="0.3636" style="stop-color:#E42B27"/>
		<stop  offset="0.497" style="stop-color:#E5533C"/>
	</linearGradient>
	<path fill="url(#SVGID_11_)" d="M459.493,395.128c-8.775-0.082-11.6,2.18-17.96,6.063c-6.358,3.886-9.461,4.101-17.053-5.711
		c-7.595-9.811-32.267-43.935-32.267-43.935s-29.063-39.231-65.805-56.701c-0.085-0.041-0.139-0.125-0.141-0.219l-0.905-47.996
		c-0.001-0.015-0.002-0.028-0.006-0.043l-5.95-30.168c-0.037-0.184,0.133-0.34,0.313-0.29l28.894,8.081
		c0.007,0.002,0.013,0.003,0.02,0.004l56.093,10.874c0.146,0.029,0.283-0.075,0.296-0.222c0.121-1.272,0.726-6.785,2.724-13.245
		c2.259-7.302,11.431-37.096,11.584-45.984c0.013-0.703-0.546-1.278-1.248-1.298l-0.909-0.026c-1.329-0.039-2.646,0.162-3.938,0.483
		c-3.347,0.831-6.385,0.354-7.354-1.505c-0.58-1.11-1.644-1.887-2.797-2.374L401,170.042c-0.157-0.065-0.329,0.032-0.347,0.201
		c-0.257,2.57-2.3,19.369-12.33,26.242c-0.036,0.024-0.076,0.038-0.119,0.039c-8.351,0.261-25.61-2.84-33.927-4.367
		c-0.017-0.002-0.03-0.006-0.046-0.013c-15.379-7.021-37.294-18.583-38.462-19.201c-0.036-0.019-0.069-0.026-0.109-0.026
		l-48.742-0.128c-0.02,0-0.037,0.002-0.058,0.006c-1.878,0.461-99.454,28.133-99.561,35.081c-0.081,5.262,3.272,39.57,5.024,58.222
		l0.642,10.365c0.431,6.977,3.801-3.826,10.197-3.027c7.355,0.921,14.927,11.663,14.441,3.826l-2.423-39.156
		c-0.077-1.229-0.314-2.417-0.671-3.556c0.384-0.36,0.745-0.626,1.072-0.776c5.78-2.652,43.135-5.314,45.795-5.5
		c0.091-0.007,0.177,0.034,0.224,0.114c1.026,1.765,12.519,21.561,15.578,29.157c3.138,7.791,6.973,35.704,7.128,36.843
		c0.003,0.024,0.003,0.048-0.001,0.072l-9.638,61.014c-0.026,0.17-0.214,0.264-0.367,0.181l-41.816-22.475
		c-0.125-0.066-0.282-0.017-0.345,0.111l-34.688,70.917c-0.048,0.098-0.029,0.211,0.05,0.287
		c2.153,2.065,30.638,29.281,36.706,28.862c6.3-0.435,22.14-8.517-8.939-35.457c-0.081-0.069-0.111-0.187-0.068-0.286l11.809-28.401
		c0.062-0.149,0.244-0.202,0.375-0.11l48.641,34.188c4.479,3.148,10.14,1.342,11.822-3.772l21.464-65.177
		c0.05-0.152,0.224-0.224,0.36-0.141c3.893,2.381,49.799,30.447,56.441,34.461c6.896,4.169,56.221,50.42,60.822,57.565
		c0.05,0.08,0.134,0.116,0.228,0.104l35.331-3.844c0.048-0.007,0.087-0.021,0.125-0.049c0.927-0.753,14.076-11.517,14.377-18.183
		C467.309,397.346,468.271,395.21,459.493,395.128"/>
	<linearGradient id="SVGID_12_" gradientUnits="userSpaceOnUse" x1="394.3145" y1="173.9902" x2="459.1709" y2="173.9902">
		<stop  offset="0.3455" style="stop-color:#E42B27"/>
		<stop  offset="0.3636" style="stop-color:#E42B27"/>
		<stop  offset="0.497" style="stop-color:#E5533C"/>
	</linearGradient>
	<path fill="url(#SVGID_12_)" d="M453.98,167.509c-2.925-1.633-6.595-1.906-6.595-1.906c-1.771-1.885-10.324-7.082-23.771-1.646
		l-9.343,2.522c-4.795,0.078-4.926,0.558-11.968-5.02c-7.041-5.566-7.989,2.145-7.989,2.145c5.117,2.759,7.527,17.313,7.527,17.313
		s4.478,8.802,11.182,7.487l12.973-7.208c2.531-1.16,5.425-2.114,7.832-3.497c5.385-1.236,10.629-2.012,12.404-1.654
		C467.403,180.32,456.905,169.138,453.98,167.509"/>
	<linearGradient id="SVGID_13_" gradientUnits="userSpaceOnUse" x1="157.5195" y1="302.6465" x2="204.3037" y2="302.6465">
		<stop  offset="0.3455" style="stop-color:#E42B27"/>
		<stop  offset="0.3636" style="stop-color:#E42B27"/>
		<stop  offset="0.497" style="stop-color:#E5533C"/>
	</linearGradient>
	<path fill="url(#SVGID_13_)" d="M165.611,326.999c2.766-0.845,5.09-3.274,5.09-3.274c2.255,0.179,10.619-1.967,14.97-15.833
		l3.833-8.668c2.756-3.51,2.521-3.973,10.248-4.739c7.717-0.773,3.287-7.401,3.287-7.401c-4.778,1.555-15.602-7.934-15.602-7.934
		s-8.311-3.568-11.382,2.271l-2.927,14.89c-0.73,2.718-1.806,5.533-2.32,8.334c-2.35,4.824-4.915,9.196-6.187,10.199
		C149.474,326.778,162.846,327.846,165.611,326.999"/>
	<linearGradient id="SVGID_14_" gradientUnits="userSpaceOnUse" x1="74.8828" y1="245.6812" x2="149.8018" y2="245.6812">
		<stop  offset="0.3455" style="stop-color:#E42B27"/>
		<stop  offset="0.3636" style="stop-color:#E42B27"/>
		<stop  offset="0.497" style="stop-color:#E5533C"/>
	</linearGradient>
	<path fill="url(#SVGID_14_)" d="M74.883,230.977l70.873,10.304c2.938,0.428,4.698,5.509,3.82,11.023
		c-0.869,5.451-3.956,9.048-6.74,7.852L74.883,230.977z"/>
	<linearGradient id="SVGID_15_" gradientUnits="userSpaceOnUse" x1="59.6943" y1="231.3779" x2="77.0166" y2="231.3779">
		<stop  offset="0.3455" style="stop-color:#E42B27"/>
		<stop  offset="0.3636" style="stop-color:#E42B27"/>
		<stop  offset="0.497" style="stop-color:#E5533C"/>
	</linearGradient>
	<path fill="url(#SVGID_15_)" d="M66.729,220.333c-2.364-0.426-4.579,1.368-6.047,6.197c-1.774,5.841-1.093,12.384,1.52,14.615
		c0.432,0.369,0.892,0.595,1.363,0.691c0.019,3.375,0.815,6.228,2.304,7.5c2.509,2.141,6.032-1.025,7.87-7.073
		c1.128-3.714,1.357-7.649,0.786-10.63c0.529-1.015,1.007-2.19,1.404-3.499c1.837-6.049,1.292-12.688-1.217-14.83
		C72.358,211.293,68.639,214.998,66.729,220.333"/>
	<linearGradient id="SVGID_16_" gradientUnits="userSpaceOnUse" x1="32.251" y1="303.4268" x2="133.0176" y2="303.4268">
		<stop  offset="0.3455" style="stop-color:#E42B27"/>
		<stop  offset="0.3636" style="stop-color:#E42B27"/>
		<stop  offset="0.497" style="stop-color:#E5533C"/>
	</linearGradient>
	<path fill="url(#SVGID_16_)" d="M32.251,279.484l95.006,28.095c3.937,1.163,6.505,6.954,5.567,12.558
		c-0.925,5.54-4.892,8.586-8.656,6.647L32.251,279.484z"/>
	<linearGradient id="SVGID_17_" gradientUnits="userSpaceOnUse" x1="12.0034" y1="278.6992" x2="34.624" y2="278.6992">
		<stop  offset="0.3455" style="stop-color:#E42B27"/>
		<stop  offset="0.3636" style="stop-color:#E42B27"/>
		<stop  offset="0.497" style="stop-color:#E5533C"/>
	</linearGradient>
	<path fill="url(#SVGID_17_)" d="M21.44,265.261c-3.173-1.023-6.636,1.312-8.388,6.053c-2.117,5.729-0.928,12.798,2.655,15.787
		c0.593,0.493,1.214,0.843,1.848,1.061c0.169,3.564,1.355,6.77,3.396,8.471c3.438,2.87,8.004,0.387,10.198-5.549
		c1.346-3.645,1.482-7.74,0.593-11.025c0.662-0.941,1.248-2.064,1.723-3.351c2.193-5.935,1.183-13.072-2.258-15.941
		C27.979,258.072,23.761,260.098,21.44,265.261"/>
	<linearGradient id="SVGID_18_" gradientUnits="userSpaceOnUse" x1="23.3413" y1="366.4141" x2="133.772" y2="366.4141">
		<stop  offset="0.3455" style="stop-color:#E42B27"/>
		<stop  offset="0.3636" style="stop-color:#E42B27"/>
		<stop  offset="0.497" style="stop-color:#E5533C"/>
	</linearGradient>
	<path fill="url(#SVGID_18_)" d="M23.818,335.364l103.821,41.417c4.302,1.717,7.01,7.985,5.873,13.599
		c-1.124,5.546-5.538,8.136-10.113,6.687L23.341,336.399L23.818,335.364z"/>
	<linearGradient id="SVGID_19_" gradientUnits="userSpaceOnUse" x1="0.5425" y1="335.7412" x2="25.5356" y2="335.7412">
		<stop  offset="0.3455" style="stop-color:#E42B27"/>
		<stop  offset="0.3636" style="stop-color:#E42B27"/>
		<stop  offset="0.497" style="stop-color:#E5533C"/>
	</linearGradient>
	<path fill="url(#SVGID_19_)" d="M11.145,321.366c-3.465-1.472-7.314,0.458-9.33,5.078c-2.437,5.585-1.269,12.979,2.609,16.517
		c0.642,0.584,1.319,1.024,2.01,1.332c0.118,3.671,1.357,7.109,3.567,9.124c3.722,3.396,8.786,1.459,11.309-4.323
		c1.549-3.552,1.779-7.727,0.864-11.207c0.746-0.876,1.412-1.947,1.959-3.2c2.522-5.783,1.551-13.226-2.172-16.621
		C18.467,314.879,13.792,316.388,11.145,321.366"/>
</g>
</svg>
