<?xml version="1.0" encoding="utf-8"?>
<!-- Generator: Adobe Illustrator 19.1.0, SVG Export Plug-In . SVG Version: 6.00 Build 0)  -->
<svg version="1.1" id="Layer_1" xmlns="http://www.w3.org/2000/svg" xmlns:xlink="http://www.w3.org/1999/xlink" x="0px" y="0px"
	 viewBox="0 0 432 288" enable-background="new 0 0 432 288" xml:space="preserve">
<g>
	<path fill-rule="evenodd" clip-rule="evenodd" fill="#E52928" d="M281.3,137c0.7,0,1.6-0.2,1.9,0.3c0.5,2.5,0.3,5.6,0.3,8.5
		c0,5.7,0,11.4,0,17.2c0,2.8-0.4,5.4-0.5,8.2c-0.2,2.9,0,6.9,0.3,10c0.1,1,0.5,1.9,0.5,2.7c0.2,2.5,0.1,5.3,0.3,8
		c0.2,4.7,0.7,8.8-0.4,12.8c-0.4,1.5-1.3,3-2.2,3.1c-1.7,0.2-2.5-2.6-2.9-4.2c-0.7-3.8-0.6-8.9-0.4-13.2c0.1-2.2,0.6-4.3,0.1-6.3
		c1-4.9,1-11.3,0.1-16.1c-0.2-1.1-0.3-2.1-0.4-3.1c-0.3-2-0.9-4.1-1.1-6c-0.2-2.6-0.2-5.4,0-7.9C277.3,145.5,278.3,139.5,281.3,137z
		"/>
	<path fill-rule="evenodd" clip-rule="evenodd" fill="#E52928" d="M195.3,139c0.1,0,0.1,0.1,0.1,0.1c0.3,3.1,0.4,6.9,0.4,10.6
		c0,1.1-0.2,2.3,0.4,3.1c1.2-0.3,0.7-2,0.7-3c0-3.4-0.1-7.7,0.1-10.9c0.6,0.3,0.3,1.1,0.4,1.6c0.3,2.5,0.5,6.2,0.7,9.1
		c0.1,1.1-0.4,2.6,0.5,3.3c0.8-0.1,0.5-1,0.5-1.5c0.2-3.7-0.8-8.6-0.3-12.5c0.5,0.1,0.3,0.9,0.4,1.2c0.8,4.7,1.2,9.4,1.5,14.7
		c0.1,2.1,0.5,3.9-0.1,5.3c-0.6,1.5-2.4,1.9-2.9,3.7c0,0.1-0.1,0.8-0.1,1c-0.3,3,0.1,6.2,0.1,9.5c0.1,3.3,0,6.8,0.5,9.4
		c0.2,1,0.8,1.8,1,2.7c0.1,0.4-0.1,0.8-0.1,1.2c0,0.5,0.2,1,0.3,1.6c0.3,4,1.2,9.6,0.4,13.8c-0.5,2.5-2.4,6.1-5,3.8
		c-3.1-2.7-1.4-13.2-1.2-18.4c0-0.7-0.1-1.4,0-1.9c0.1-1.1,0.9-2.2,1.1-3.5c0.5-2.9,0.2-6.3,0.4-9.5c0.1-1.5,0.1-3.3,0.1-4.9
		c0-2.8,0-5-1.2-6.4c-0.6-0.8-1.8-1.3-2-2c-0.3-0.7-0.2-2.7-0.1-4.1c0.1-4.4,0.5-9.9,1-14.2c0.1-0.5,0.2-1.1,0.3-1.6
		c0.1-0.4-0.1-1.2,0.5-1.2c0.1,3.2,0.3,7.2,0.1,10.6c0,1.1-0.6,2.5,0.3,3.3c1-0.7,0.5-2.5,0.5-3.7c0.1-3.1,0.2-6.8,0.3-9.8
		c0.1,0,0.1-0.1,0.1-0.1C195,139.2,195.1,139.1,195.3,139z"/>
	<path fill-rule="evenodd" clip-rule="evenodd" fill="#E52928" d="M59.3,155c7.3,0,14.5,0,21.8,0c-0.1,1.9,0.2,4.2-0.1,5.9
		c-2.4,0-4.7,0-7.1,0c-0.1,15.6,0.2,31.6-0.1,46.9c-2.4,0-4.8,0-7.2,0c0-15.6,0-31.3,0-46.9c-2.4,0-4.8,0-7.2,0
		C59.3,158.9,59.3,156.9,59.3,155z"/>
	<path fill-rule="evenodd" clip-rule="evenodd" fill="#E52928" d="M106.6,207.8c-2.5,0-4.9,0-7.4,0c0-7.3,0-15.7,0-23.5
		c-2.4,0-4.7,0-7.1,0c-0.3,7.5,0,15.7-0.1,23.5c-2.4,0-4.8,0-7.2,0c0-6.5,0-14,0-21.4c0-7.4-0.4-14.8,0-21.3c0.3-4,2.6-9.6,6.4-10.1
		c1.6-0.2,3.4,0,4.9,0c1.6,0,3.4-0.2,4.6,0.1c3.3,0.9,5.1,5.2,5.6,9.1c0.5,4.4,0.3,9.8,0.3,14.3C106.6,188.8,106.6,199,106.6,207.8z
		 M98.8,164c-0.6-1.7-1.9-4-4.1-3c-4.3,1.9-2.2,11.4-2.7,17.5c2.4,0,4.8,0,7.2,0C98.8,174.2,100.1,167.7,98.8,164z"/>
	<path fill-rule="evenodd" clip-rule="evenodd" fill="#E52928" d="M132,166.7c-1.2,0-2.4,0-3.5,0c0.1-3.1-2.2-8.1-5.7-5.2
		c-1.5,1.3-2.1,4.7-1.4,7.4c0.5,1.8,1.8,3.6,2.9,5.5c1,1.8,1.9,3.7,2.9,5.5c2.1,3.8,4.6,7.1,4.9,11.7c0.5,6.4-0.5,12.2-3.8,15
		c-0.4,0.4-1.1,0.9-1.9,1.1c-2.9,0.8-8,0-9.3-1.1c-2.5-2-3-5.8-3.1-10.5c1.2,0,2.5,0,3.7,0c-0.5,2.9,1,6.7,4.6,5.7
		c2.5-0.7,3.1-5.4,2.2-8.5c-0.5-1.7-1.9-3.5-2.9-5.3c-1-1.8-1.9-3.6-2.9-5.3c-2-3.7-4.4-7-4.8-11.6c-0.5-6.3,0.5-12,3.8-14.9
		c0.6-0.5,1.5-1.1,2.6-1.2c2.5-0.4,5.7-0.2,7.1,0.4C131,157,131.6,161.5,132,166.7z"/>
	<path fill-rule="evenodd" clip-rule="evenodd" fill="#E52928" d="M135.8,155c7.2,0,14.5,0,21.7,0c0,2,0,3.9,0,5.9
		c-2.4,0-4.7,0-7.1,0c-0.3,15.4,0,31.3-0.1,46.9c-2.5,0-4.9,0-7.4,0c0-15.6,0-31.2,0-46.8c-2.1-0.3-4.9,0-7.2-0.1c0-1.8,0-3.6,0-5.5
		C135.6,155.2,135.6,155,135.8,155z"/>
	<path fill-rule="evenodd" clip-rule="evenodd" fill="#E52928" d="M161.3,155c2.4,0,4.7,0,7.1,0c0,3,0,6.2,0,9.4
		c0,3.2-0.3,6.5,0,9.4c0.2,1.8,1.4,4.6,3.5,4.6c2.2,0.1,3.5-2.8,3.7-4.4c0.6-5.5-0.5-13.4,0-19.1c2.4,0,4.8,0,7.2,0
		c0,5.8,0.4,13.8,0,19.9c-0.4,5-2.6,8.6-7.2,9.4c0,7.8,0,15.6,0,23.5c-2.4,0-4.8,0-7.2,0c0-7.8,0-15.5,0-23.3c-2.2-0.8-3.8-1.4-5-3
		c-4.1-5.3-1.3-17.4-2.2-26.1C161.2,155.2,161.1,155,161.3,155z"/>
	<path fill-rule="evenodd" clip-rule="evenodd" fill="#E52928" d="M233.9,166.6c-1,0.3-2.5,0.1-3.7,0.1c-0.4-2.7-0.6-5-2.5-5.7
		c-1.3-0.5-4.3-0.4-5.6,0c-3.6,1.1-2.9,7-2.9,12.4c0,5.1,0,10.7,0,15.8c0,4.9-0.7,12.4,3.4,12.7c3.2,0.2,3.9-3.7,4-6.8
		c0-3.6-0.1-7.1,0-10.6c-1-0.3-2.5,0-3.7-0.1c0-2,0-3.9,0-5.9c3.6,0,7.3,0,10.9,0c-0.5,10.2,1.9,23-3.5,27.8
		c-1.8,1.6-3.7,1.5-7.5,1.5c-1.9,0-4.2,0-5.2-0.3c-3.1-1-5.3-5.7-5.6-9.7c-0.4-4.9,0-10.7,0-16.4c0-8.5-1-17.8,1.9-22.8
		c0.9-1.6,2.5-3.4,4.5-3.7c1.4-0.2,3.3,0,5,0c2.8,0,4.7-0.1,6.1,0.7C233,157.6,233.3,161.5,233.9,166.6z"/>
	<path fill-rule="evenodd" clip-rule="evenodd" fill="#E52928" d="M241.2,155c0.4,0.1,0.9-0.1,1.2,0c0.8,0.2,2,2.6,2.7,3.5
		c5.8,8.4,12,17.5,17.7,25.6c0-9.7,0-19.5,0-29.2c1.2,0,2.5,0,3.7,0c-0.1,17.5,0.2,35.5-0.1,52.8c-1.2,0.3-1.7-0.2-2.3-1
		c-1.3-1.8-2.6-3.9-3.8-5.7c-5.1-7.5-10.5-15.1-15.5-22.5c0,9.7,0,19.5,0,29.2c-1.2,0-2.5,0-3.7,0c0-17.5,0-34.9,0-52.4
		C241.1,155.2,241.1,155,241.2,155z"/>
	<path fill-rule="evenodd" clip-rule="evenodd" fill="#E52928" d="M292.1,155c7.2,0,14.5,0,21.7,0c0,2,0,3.9,0,5.9
		c-2.4,0-4.8,0-7.2,0c0,15.6,0,31.3,0,46.9c-2.5,0-4.9,0-7.4,0c0-15.9,0-31,0-46.8c-2.1-0.3-4.9,0-7.2-0.1c0-1.8,0-3.6,0-5.5
		C292,155.2,292,155,292.1,155z"/>
	<path fill-rule="evenodd" clip-rule="evenodd" fill="#E52928" d="M317.6,155c6,0,12,0,18,0c0,2,0,3.9,0,5.9c-3.6,0-7.3,0-10.9,0
		c0,5.8,0,11.6,0,17.5c2.2,0.3,5,0,7.4,0.1c0,2,0,3.9,0,5.9c-2.4,0-4.8,0-7.2,0c-0.3,5.5,0,11.7-0.1,17.5c3.4,0.3,7.3,0,10.9,0.1
		c0,2,0,3.9,0,5.9c-6,0-12.1,0-18.1,0C317.6,190.2,317.3,172.3,317.6,155z"/>
	<path fill-rule="evenodd" clip-rule="evenodd" fill="#E52928" d="M364.8,166.2c0,1.3,0,2.5,0,3.8c-0.6,5.2-1.4,10.2-6.4,11
		c1.3,0.4,2.6-0.1,3.5,0.1c1.7,0.5,2.6,3.4,2.9,5.5c0,7,0,14.1,0,21.1c-1.1,0-2.2,0-3.8,0c-0.8,0-3.2,0.3-3.5-0.1
		c-0.4-0.5,0-3.8,0-5.2c0-2,0-3.8,0-5.2c0-7.6,1.3-14.4-7.2-13c0,7.8,0,15.6,0,23.5c-2.4,0-4.8,0-7.2,0c0-17.6,0-35.2,0-52.8
		c2.7,0,5.4,0,8,0c2.7,0,5.7-0.5,7.9,0.1c1.9,0.5,3.4,2.6,4.2,4.2C364.2,161.3,364.6,163.7,364.8,166.2z M350.2,161.3
		c0,5.7,0,11.5,0,17.2c1.5-0.2,3.3,0.4,4.6-0.1c1-0.4,2.3-2.4,2.6-4.2c0.2-1.1,0-2.8,0-4.4c0-1.6,0.2-3.3,0-4.5
		c-0.3-2-1.6-3.9-2.6-4.2c-1.5-0.5-2.7,0.1-4.5-0.1C350.2,160.9,350.2,161.1,350.2,161.3z"/>
</g>
<g>
	<linearGradient id="SVGID_1_" gradientUnits="userSpaceOnUse" x1="234.4755" y1="71.8407" x2="248.3173" y2="71.8407">
		<stop  offset="0.3455" style="stop-color:#E42B27"/>
		<stop  offset="0.3636" style="stop-color:#E42B27"/>
		<stop  offset="0.497" style="stop-color:#E5533C"/>
	</linearGradient>
	<path fill="url(#SVGID_1_)" d="M237,75.8L237,75.8L237,75.8c-0.2,0-0.3-0.1-0.3-0.1c0,0,0.1-0.1,0.3-0.1c0.2-5.4,4.9-7.9,11.3-7.9
		c-0.7-0.1-1.4-0.1-2.1-0.1c-6.5,0-11.3,2.4-11.4,7.9c-0.2,0-0.3,0.1-0.3,0.1c0,0,0.1,0.1,0.3,0.1v0h0c0.6,0.1,2.2,0.3,4.5,0.4
		C238.1,76,237.4,75.9,237,75.8"/>
	<linearGradient id="SVGID_2_" gradientUnits="userSpaceOnUse" x1="244.5015" y1="66.9532" x2="247.4541" y2="66.9532">
		<stop  offset="0.3455" style="stop-color:#E42B27"/>
		<stop  offset="0.3636" style="stop-color:#E42B27"/>
		<stop  offset="0.497" style="stop-color:#E5533C"/>
	</linearGradient>
	<path fill="url(#SVGID_2_)" d="M247.5,67c0,0.4-0.6,0.8-1.5,0.7c-0.8,0-1.5-0.3-1.5-0.8c0-0.4,0.6-0.7,1.5-0.7
		C246.8,66.2,247.4,66.5,247.5,67"/>
	<linearGradient id="SVGID_3_" gradientUnits="userSpaceOnUse" x1="241.6913" y1="58.4845" x2="245.4517" y2="58.4845">
		<stop  offset="0.3455" style="stop-color:#E42B27"/>
		<stop  offset="0.3636" style="stop-color:#E42B27"/>
		<stop  offset="0.497" style="stop-color:#E5533C"/>
	</linearGradient>
	<path fill="url(#SVGID_3_)" d="M244.5,50.8c0,0,0,0.1,0,0.2c0,0.1,0,0.4-0.2,0.6c-0.2,0.2-0.4,0.5-0.7,0.7
		c-0.3,0.2-0.6,0.4-0.9,0.7c-0.2,0.1-0.3,0.3-0.4,0.4c-0.1,0.1-0.1,0.3-0.1,0.4l0,0.1c0,0,0,0,0,0l0,0l0,0c0,0.1,0,0.1,0,0.1
		c0,0.1,0.1,0.2,0.1,0.2c0.1,0.1,0.1,0.2,0.4,0.3c0.2,0.1,0.6,0.4,0.8,0.7c0.1,0.2,0.2,0.3,0.3,0.5c0,0.1,0.1,0.2,0.1,0.2l0,0.1
		c0,0,0,0.1,0,0.1c0,0.2,0,0.4,0,0.6c0,0.2-0.1,0.4-0.2,0.6c-0.2,0.3-0.4,0.6-0.6,0.8c-0.2,0.2-0.2,0.4-0.3,0.6c0,0.1,0,0.2-0.1,0.3
		v0l0,0l0,0v0c0,0,0,0,0,0l0,0.1c0,0.1,0,0.1,0,0.1c0.1,0.4,0.3,0.8,0.6,1.2c0.2,0.2,0.3,0.4,0.5,0.7c0.1,0.3,0.3,0.5,0.3,0.8
		c0,0.1,0,0.3,0,0.4c0,0,0,0.1,0,0.2c0,0,0,0.1,0,0.1c0,0.2,0.1,0.3,0.2,0.5c0.2,0.3,0.6,0.5,0.8,0.9c0.2,0.3,0.2,0.7,0.2,1
		c0,0.3-0.1,0.5-0.2,0.6c-0.1,0.1-0.1,0.2-0.1,0.2l-0.1,0c0,0,0-0.1,0.1-0.2c0-0.1,0.1-0.3,0.1-0.6c0-0.2,0-0.6-0.2-0.8
		c-0.2-0.3-0.5-0.5-0.8-0.8c-0.2-0.2-0.3-0.4-0.3-0.6c-0.1-0.2,0-0.5-0.1-0.7c-0.1-0.5-0.4-0.9-0.8-1.3c-0.3-0.4-0.7-0.9-0.8-1.4
		c-0.1-0.3-0.1-0.6,0-0.9c0.1-0.3,0.2-0.6,0.4-0.8c0.2-0.2,0.4-0.5,0.5-0.7c0.1-0.2,0.2-0.5,0.1-0.8c0-0.3-0.1-0.5-0.3-0.8
		c-0.1-0.2-0.4-0.4-0.6-0.5c-0.1-0.1-0.2-0.2-0.3-0.3c-0.1-0.1-0.2-0.2-0.2-0.3c-0.1-0.3-0.1-0.5-0.1-0.8c0-0.3,0.1-0.5,0.3-0.7
		c0.2-0.2,0.3-0.3,0.5-0.4c0.4-0.2,0.7-0.4,1-0.6c0.3-0.2,0.5-0.4,0.7-0.6c0.2-0.2,0.2-0.4,0.2-0.5
		C244.5,50.9,244.5,50.8,244.5,50.8L244.5,50.8z"/>
	<linearGradient id="SVGID_4_" gradientUnits="userSpaceOnUse" x1="243.4881" y1="58.5398" x2="246.1805" y2="58.5398">
		<stop  offset="0.3455" style="stop-color:#E42B27"/>
		<stop  offset="0.3636" style="stop-color:#E42B27"/>
		<stop  offset="0.497" style="stop-color:#E5533C"/>
	</linearGradient>
	<path fill="url(#SVGID_4_)" d="M246,51.1c0,0,0,0.1,0,0.2c0,0.1,0,0.4-0.2,0.6c-0.2,0.2-0.4,0.4-0.7,0.6c-0.3,0.2-0.6,0.4-0.9,0.6
		c-0.1,0.1-0.2,0.2-0.2,0.3c0,0.1,0,0.1,0,0.2c0,0,0,0.1,0,0.1c0,0,0,0.1,0,0.1c0.1,0.3,0.4,0.6,0.8,0.9c0.2,0.2,0.4,0.4,0.6,0.7
		c0.2,0.3,0.3,0.7,0.4,1l0,0.1v0l0,0v0l0,0.1c0,0.1,0,0.2,0,0.3c0,0.2-0.1,0.4-0.1,0.5c-0.1,0.3-0.3,0.6-0.5,0.8
		c-0.2,0.2-0.3,0.4-0.4,0.6c-0.1,0.2-0.2,0.3-0.2,0.5c0,0,0,0,0,0.1v0v0v0c0,0,0,0,0,0v0l0,0.2c0,0.1,0,0.1,0,0.1c0,0,0,0.1,0,0.1
		c0,0.2,0.1,0.4,0.2,0.5c0.1,0.2,0.3,0.4,0.4,0.6c0.2,0.2,0.3,0.4,0.4,0.7c0.2,0.4,0.4,0.9,0.5,1.3c0.1,0.4,0.1,0.8,0.1,1.2
		c0,0.3,0,0.6-0.1,0.9c0,0.2-0.1,0.4-0.1,0.5c0,0.1,0,0.2,0,0.2l-0.1,0c0,0,0-0.1,0-0.2c0-0.1,0-0.3,0.1-0.6c0-0.2,0-0.5,0-0.9
		c0-0.3-0.1-0.7-0.2-1.1c-0.1-0.4-0.3-0.8-0.5-1.2c-0.2-0.4-0.6-0.7-0.9-1.1c-0.3-0.4-0.5-1-0.5-1.5c0-0.3,0.1-0.6,0.2-0.8
		c0.1-0.2,0.3-0.5,0.5-0.7c0.2-0.2,0.3-0.4,0.4-0.7c0.1-0.2,0.1-0.5,0.1-0.8c0-0.3-0.1-0.5-0.2-0.7c-0.1-0.2-0.3-0.4-0.5-0.6
		c-0.2-0.2-0.4-0.4-0.5-0.6c-0.2-0.2-0.3-0.4-0.3-0.7c-0.1-0.2-0.1-0.5,0-0.7c0.1-0.2,0.2-0.4,0.4-0.5c0.3-0.2,0.7-0.4,1-0.5
		c0.3-0.1,0.5-0.3,0.7-0.5c0.2-0.2,0.2-0.3,0.2-0.5C245.9,51.2,245.9,51.1,246,51.1L246,51.1z"/>
	<linearGradient id="SVGID_5_" gradientUnits="userSpaceOnUse" x1="245.8666" y1="58.539" x2="248.4042" y2="58.539">
		<stop  offset="0.3455" style="stop-color:#E42B27"/>
		<stop  offset="0.3636" style="stop-color:#E42B27"/>
		<stop  offset="0.497" style="stop-color:#E5533C"/>
	</linearGradient>
	<path fill="url(#SVGID_5_)" d="M248.4,51.1c0,0,0,0.1,0,0.2c0,0.1-0.1,0.3-0.2,0.6c-0.2,0.2-0.4,0.4-0.7,0.6
		c-0.3,0.2-0.6,0.3-0.9,0.6c-0.1,0.1-0.2,0.2-0.2,0.3c0,0.1,0,0.1,0,0.2c0,0,0,0,0,0l0,0c0,0,0,0.1,0,0.1c0,0,0,0.1,0,0.1
		c0.1,0.3,0.3,0.6,0.6,1c0.2,0.2,0.4,0.5,0.5,0.8c0.1,0.3,0.2,0.7,0.2,1c0,0.4-0.1,0.7-0.2,1c-0.1,0.3-0.3,0.6-0.5,0.8
		c-0.3,0.4-0.5,0.7-0.5,1.1c0,0.2,0,0.4,0.1,0.5c0.1,0.1,0.2,0.3,0.4,0.5c0.1,0.1,0.2,0.2,0.3,0.4c0.1,0.1,0.1,0.3,0.1,0.5
		c0,0.2,0,0.3,0,0.4c0,0.1,0,0.1,0,0.2c0,0.1,0,0.1,0,0.2c0,0.3-0.1,0.5-0.2,0.7c-0.1,0.2-0.2,0.4-0.2,0.6c-0.1,0.4-0.1,0.7-0.2,1
		c0,0.3,0,0.6,0,0.8c0,0.2,0,0.4,0,0.5c0,0.1,0,0.2,0,0.2l-0.1,0c0,0,0-0.1,0-0.2c0-0.1-0.1-0.3-0.1-0.5c0-0.2-0.1-0.5-0.1-0.8
		c0-0.3,0-0.7,0.1-1.1c0.1-0.4,0.3-0.8,0.3-1.2c0-0.2,0-0.5,0-0.7c-0.1-0.2-0.2-0.4-0.4-0.6c-0.2-0.2-0.4-0.3-0.5-0.6
		c-0.1-0.2-0.2-0.5-0.2-0.8c0-0.3,0-0.5,0.2-0.8c0.1-0.3,0.3-0.5,0.4-0.7c0.2-0.2,0.3-0.4,0.4-0.7c0.1-0.2,0.2-0.5,0.2-0.7
		c0-0.3,0-0.5-0.1-0.7c-0.1-0.2-0.2-0.4-0.4-0.6c-0.1-0.2-0.3-0.4-0.4-0.6c-0.1-0.2-0.2-0.4-0.2-0.7c0-0.2,0-0.5,0.1-0.7
		c0.1-0.2,0.3-0.4,0.4-0.5c0.3-0.2,0.7-0.4,1-0.5c0.3-0.1,0.5-0.3,0.7-0.4c0.2-0.2,0.2-0.3,0.3-0.4
		C248.3,51.2,248.3,51.1,248.4,51.1L248.4,51.1z"/>
	<linearGradient id="SVGID_6_" gradientUnits="userSpaceOnUse" x1="232.1927" y1="76.8821" x2="261.5445" y2="76.8821">
		<stop  offset="0.3455" style="stop-color:#E42B27"/>
		<stop  offset="0.3636" style="stop-color:#E42B27"/>
		<stop  offset="0.497" style="stop-color:#E5533C"/>
	</linearGradient>
	<path fill="url(#SVGID_6_)" d="M261.5,76.5c0,1.4-6.5,3.4-14.6,3.4c-8.1,0-14.7-2.1-14.7-3.5c0-1.4,6.5-2.6,14.6-2.5
		C254.9,73.9,261.5,75.1,261.5,76.5"/>
	<linearGradient id="SVGID_7_" gradientUnits="userSpaceOnUse" x1="234.5314" y1="71.9249" x2="259.1295" y2="71.9249">
		<stop  offset="0.3455" style="stop-color:#E42B27"/>
		<stop  offset="0.3636" style="stop-color:#E42B27"/>
		<stop  offset="0.497" style="stop-color:#E5533C"/>
	</linearGradient>
	<path fill="url(#SVGID_7_)" d="M259.1,75.7c0,0-0.1-0.1-0.2-0.1c-0.2-5.1-6.1-8-12.7-8c-6.5,0-11.3,2.4-11.4,7.9
		c-0.2,0-0.3,0.1-0.3,0.1c0,0,0.1,0.1,0.3,0.1v0h0c1.2,0.3,6.1,0.5,12,0.5c5.9,0,10.9-0.1,12-0.4h0c0,0,0,0,0,0
		C259,75.8,259.1,75.8,259.1,75.7"/>
	<linearGradient id="SVGID_8_" gradientUnits="userSpaceOnUse" x1="232.2009" y1="73.7463" x2="249.5305" y2="73.7463">
		<stop  offset="0.3455" style="stop-color:#E42B27"/>
		<stop  offset="0.3636" style="stop-color:#E42B27"/>
		<stop  offset="0.497" style="stop-color:#E5533C"/>
	</linearGradient>
	<path fill="url(#SVGID_8_)" d="M237.4,76.4c0-0.6,1-1.1,2.7-1.5c0.4-4.3,3.8-6.6,8.7-7.2c-0.8-0.1-1.7-0.2-2.6-0.2
		c-6.3,0-10.9,2.3-11.4,7.3c-1.7,0.4-2.7,0.9-2.7,1.5c0,1.4,6.6,3.5,14.7,3.5c0.9,0,1.8,0,2.6-0.1C242.7,79.4,237.5,77.7,237.4,76.4
		"/>
	<linearGradient id="SVGID_9_" gradientUnits="userSpaceOnUse" x1="234.857" y1="75.8944" x2="258.4928" y2="75.8944">
		<stop  offset="0.3455" style="stop-color:#E42B27"/>
		<stop  offset="0.3636" style="stop-color:#E42B27"/>
		<stop  offset="0.497" style="stop-color:#E5533C"/>
	</linearGradient>
	<path fill="url(#SVGID_9_)" d="M234.9,74.9c0,0,11.4,4.4,23.6,0.2C258.5,75.1,244.1,77,234.9,74.9"/>
	<linearGradient id="SVGID_10_" gradientUnits="userSpaceOnUse" x1="204.1878" y1="66.9541" x2="225.2259" y2="66.9541">
		<stop  offset="0.3455" style="stop-color:#E42B27"/>
		<stop  offset="0.3636" style="stop-color:#E42B27"/>
		<stop  offset="0.497" style="stop-color:#E5533C"/>
	</linearGradient>
	<path fill="url(#SVGID_10_)" d="M211.3,68.9l-2.9-3.6c-1,0.1-2.2-0.3-3-1.2c-1.4-1.5-1.6-3.7-0.4-5c0.5-0.6,1.2-0.8,1.9-0.9
		c-0.3-1.3-0.1-2.7,0.8-3.7c1.4-1.5,3.8-1.4,5.5,0.2c0.1-0.3,0.3-0.6,0.6-0.8c1.4-1.6,4-1.4,5.7,0.3c1.7,1.8,1.9,4.4,0.5,6
		c-0.3,0.3-0.6,0.5-0.9,0.7l1.3,4.9c1.1,0.5,2.1,1.2,3,2.2c2.8,3.3,2.7,8.3-0.3,11c-3,2.8-7.7,2.3-10.5-1
		C210.1,75.5,209.8,71.7,211.3,68.9"/>
	<linearGradient id="SVGID_11_" gradientUnits="userSpaceOnUse" x1="195.6397" y1="107.797" x2="255.154" y2="107.797">
		<stop  offset="0.3455" style="stop-color:#E42B27"/>
		<stop  offset="0.3636" style="stop-color:#E42B27"/>
		<stop  offset="0.497" style="stop-color:#E5533C"/>
	</linearGradient>
	<path fill="url(#SVGID_11_)" d="M253.6,126.3c-1.7,0-2.3,0.4-3.6,1.2c-1.3,0.8-1.9,0.8-3.4-1.1c-1.5-1.9-6.4-8.7-6.4-8.7
		s-5.8-7.8-13.1-11.3c0,0,0,0,0,0l-0.2-9.5c0,0,0,0,0,0l-1.2-6c0,0,0-0.1,0.1-0.1l5.7,1.6c0,0,0,0,0,0l11.1,2.2c0,0,0.1,0,0.1,0
		c0-0.3,0.1-1.3,0.5-2.6c0.4-1.5,2.3-7.4,2.3-9.1c0-0.1-0.1-0.3-0.2-0.3l-0.2,0c-0.3,0-0.5,0-0.8,0.1c-0.7,0.2-1.3,0.1-1.5-0.3
		c-0.1-0.2-0.3-0.4-0.6-0.5l-0.4-0.2c0,0-0.1,0-0.1,0c-0.1,0.5-0.5,3.8-2.4,5.2c0,0,0,0,0,0c-1.7,0.1-5.1-0.6-6.7-0.9c0,0,0,0,0,0
		c-3.1-1.4-7.4-3.7-7.6-3.8c0,0,0,0,0,0l-9.7,0c0,0,0,0,0,0c-0.4,0.1-19.7,5.6-19.8,7c0,1,0.6,7.9,1,11.6l0.1,2.1
		c0.1,1.4,0.8-0.8,2-0.6c1.5,0.2,3,2.3,2.9,0.8l-0.5-7.8c0-0.2-0.1-0.5-0.1-0.7c0.1-0.1,0.1-0.1,0.2-0.2c1.1-0.5,8.6-1.1,9.1-1.1
		c0,0,0,0,0,0c0.2,0.3,2.5,4.3,3.1,5.8c0.6,1.5,1.4,7.1,1.4,7.3c0,0,0,0,0,0l-1.9,12.1c0,0,0,0.1-0.1,0l-8.3-4.5c0,0-0.1,0-0.1,0
		l-6.9,14.1c0,0,0,0,0,0.1c0.4,0.4,6.1,5.8,7.3,5.7c1.2-0.1,4.4-1.7-1.8-7c0,0,0,0,0-0.1l2.3-5.6c0,0,0,0,0.1,0l9.7,6.8
		c0.9,0.6,2,0.3,2.3-0.7l4.3-12.9c0,0,0,0,0.1,0c0.8,0.5,9.9,6,11.2,6.8c1.4,0.8,11.2,10,12.1,11.4c0,0,0,0,0,0l7-0.8c0,0,0,0,0,0
		c0.2-0.1,2.8-2.3,2.9-3.6C255.2,126.8,255.4,126.4,253.6,126.3"/>
	<linearGradient id="SVGID_12_" gradientUnits="userSpaceOnUse" x1="240.6908" y1="82.4538" x2="253.5626" y2="82.4538">
		<stop  offset="0.3455" style="stop-color:#E42B27"/>
		<stop  offset="0.3636" style="stop-color:#E42B27"/>
		<stop  offset="0.497" style="stop-color:#E5533C"/>
	</linearGradient>
	<path fill="url(#SVGID_12_)" d="M252.5,81.2c-0.6-0.3-1.3-0.4-1.3-0.4c-0.3-0.4-2-1.4-4.7-0.3l-1.9,0.5c-1,0-1,0.1-2.4-1
		c-1.4-1.1-1.6,0.4-1.6,0.4c1,0.5,1.5,3.4,1.5,3.4s0.9,1.7,2.2,1.5l2.6-1.4c0.5-0.2,1.1-0.4,1.6-0.7c1.1-0.2,2.1-0.4,2.5-0.3
		C255.2,83.7,253.1,81.5,252.5,81.2"/>
	<linearGradient id="SVGID_13_" gradientUnits="userSpaceOnUse" x1="193.6977" y1="107.9866" x2="202.983" y2="107.9866">
		<stop  offset="0.3455" style="stop-color:#E42B27"/>
		<stop  offset="0.3636" style="stop-color:#E42B27"/>
		<stop  offset="0.497" style="stop-color:#E5533C"/>
	</linearGradient>
	<path fill="url(#SVGID_13_)" d="M195.3,112.8c0.5-0.2,1-0.6,1-0.6c0.4,0,2.1-0.4,3-3.1l0.8-1.7c0.5-0.7,0.5-0.8,2-0.9
		c1.5-0.2,0.7-1.5,0.7-1.5c-1,0.3-3.1-1.6-3.1-1.6s-1.6-0.7-2.3,0.4l-0.6,3c-0.1,0.5-0.4,1.1-0.5,1.7c-0.5,1-1,1.8-1.2,2
		C192.1,112.8,194.8,113,195.3,112.8"/>
	<linearGradient id="SVGID_14_" gradientUnits="userSpaceOnUse" x1="177.2962" y1="96.6815" x2="192.1648" y2="96.6815">
		<stop  offset="0.3455" style="stop-color:#E42B27"/>
		<stop  offset="0.3636" style="stop-color:#E42B27"/>
		<stop  offset="0.497" style="stop-color:#E5533C"/>
	</linearGradient>
	<path fill="url(#SVGID_14_)" d="M177.3,93.8l14.1,2c0.6,0.1,0.9,1.1,0.8,2.2c-0.2,1.1-0.8,1.8-1.3,1.6L177.3,93.8z"/>
	<linearGradient id="SVGID_15_" gradientUnits="userSpaceOnUse" x1="174.2834" y1="93.8421" x2="177.7222" y2="93.8421">
		<stop  offset="0.3455" style="stop-color:#E42B27"/>
		<stop  offset="0.3636" style="stop-color:#E42B27"/>
		<stop  offset="0.497" style="stop-color:#E5533C"/>
	</linearGradient>
	<path fill="url(#SVGID_15_)" d="M175.7,91.6c-0.5-0.1-0.9,0.3-1.2,1.2c-0.4,1.2-0.2,2.5,0.3,2.9c0.1,0.1,0.2,0.1,0.3,0.1
		c0,0.7,0.2,1.2,0.5,1.5c0.5,0.4,1.2-0.2,1.6-1.4c0.2-0.7,0.3-1.5,0.2-2.1c0.1-0.2,0.2-0.4,0.3-0.7c0.4-1.2,0.3-2.5-0.2-2.9
		C176.8,89.9,176.1,90.6,175.7,91.6"/>
	<linearGradient id="SVGID_16_" gradientUnits="userSpaceOnUse" x1="168.8365" y1="108.1403" x2="188.8359" y2="108.1403">
		<stop  offset="0.3455" style="stop-color:#E42B27"/>
		<stop  offset="0.3636" style="stop-color:#E42B27"/>
		<stop  offset="0.497" style="stop-color:#E5533C"/>
	</linearGradient>
	<path fill="url(#SVGID_16_)" d="M168.8,103.4l18.9,5.6c0.8,0.2,1.3,1.4,1.1,2.5c-0.2,1.1-1,1.7-1.7,1.3L168.8,103.4z"/>
	<linearGradient id="SVGID_17_" gradientUnits="userSpaceOnUse" x1="164.82" y1="103.2336" x2="169.3084" y2="103.2336">
		<stop  offset="0.3455" style="stop-color:#E42B27"/>
		<stop  offset="0.3636" style="stop-color:#E42B27"/>
		<stop  offset="0.497" style="stop-color:#E5533C"/>
	</linearGradient>
	<path fill="url(#SVGID_17_)" d="M166.7,100.6c-0.6-0.2-1.3,0.3-1.7,1.2c-0.4,1.1-0.2,2.5,0.5,3.1c0.1,0.1,0.2,0.2,0.4,0.2
		c0,0.7,0.3,1.3,0.7,1.7c0.7,0.6,1.6,0.1,2-1.1c0.3-0.7,0.3-1.5,0.1-2.2c0.1-0.2,0.2-0.4,0.3-0.7c0.4-1.2,0.2-2.6-0.4-3.2
		C168,99.1,167.2,99.5,166.7,100.6"/>
	<linearGradient id="SVGID_18_" gradientUnits="userSpaceOnUse" x1="167.0686" y1="120.6403" x2="188.9847" y2="120.6403">
		<stop  offset="0.3455" style="stop-color:#E42B27"/>
		<stop  offset="0.3636" style="stop-color:#E42B27"/>
		<stop  offset="0.497" style="stop-color:#E5533C"/>
	</linearGradient>
	<path fill="url(#SVGID_18_)" d="M167.2,114.5l20.6,8.2c0.9,0.3,1.4,1.6,1.2,2.7c-0.2,1.1-1.1,1.6-2,1.3l-19.9-12L167.2,114.5z"/>
	<linearGradient id="SVGID_19_" gradientUnits="userSpaceOnUse" x1="162.5445" y1="114.5554" x2="167.5042" y2="114.5554">
		<stop  offset="0.3455" style="stop-color:#E42B27"/>
		<stop  offset="0.3636" style="stop-color:#E42B27"/>
		<stop  offset="0.497" style="stop-color:#E5533C"/>
	</linearGradient>
	<path fill="url(#SVGID_19_)" d="M164.6,111.7c-0.7-0.3-1.4,0.1-1.9,1c-0.5,1.1-0.3,2.6,0.5,3.3c0.1,0.1,0.3,0.2,0.4,0.3
		c0,0.7,0.3,1.4,0.7,1.8c0.7,0.7,1.7,0.3,2.2-0.9c0.3-0.7,0.4-1.5,0.2-2.2c0.1-0.2,0.3-0.4,0.4-0.6c0.5-1.1,0.3-2.6-0.4-3.3
		C166.1,110.4,165.2,110.7,164.6,111.7"/>
</g>
</svg>
